<svg width="249" height="56" viewBox="0 0 249 56" fill="none" xmlns="http://www.w3.org/2000/svg">
<path d="M73.8095 29.0978C72.6525 29.9487 70.9401 30.3528 68.6262 30.3528C67.7237 30.3528 67.1452 30.2677 66.9138 30.0976C66.6824 29.9274 66.5667 29.5658 66.5667 29.0128V22.9719H66.9601C68.1402 22.9719 69.0195 23.2272 69.598 23.7377C70.1765 24.2482 70.5931 25.1415 70.8244 26.4178H72.1897V18.1222H70.8244C70.5931 19.4197 70.1765 20.3131 69.598 20.8236C69.0195 21.3341 68.1402 21.6106 66.9601 21.6106H66.5667V16.1866C66.5667 15.6336 66.6824 15.272 66.8907 15.1018C67.0989 14.9316 67.6543 14.8465 68.5567 14.8465C70.6856 14.8465 72.2591 15.2294 73.3236 16.0164C74.388 16.8034 75.1516 18.1435 75.6375 20.0791H76.9796L76.7482 13.5703H59V14.8891H60.3652C60.9206 14.8891 61.2908 14.9742 61.476 15.1443C61.6611 15.3145 61.7536 15.6761 61.7536 16.2079V29.0341C61.7536 29.5658 61.6611 29.9274 61.476 30.0763C61.2908 30.2465 60.9206 30.3103 60.3652 30.3103H59V31.6503H77.3499L77.7201 24.865L76.3549 24.7587C75.7995 26.8219 74.9665 28.2683 73.8095 29.0978Z" fill="white"/>
<path d="M86.7686 27.0748V17.8619L99.5968 31.8518H101.307V18.0112C101.307 16.753 101.492 15.9212 101.885 15.4947C102.278 15.0682 103.018 14.8549 104.104 14.791V13.4688H96.0835L96.1066 14.791C97.3778 14.791 98.2331 15.0042 98.6722 15.4307C99.1114 15.8573 99.3425 16.7103 99.3425 18.0112V24.7929L88.9875 13.4901H82.1227V14.8123H82.4232C82.8624 14.8123 83.2322 14.8549 83.5096 14.9616C83.7869 15.0682 84.1336 15.3028 84.4803 15.6867L84.9888 16.1771V27.0748C84.9888 28.3117 84.7808 29.1434 84.3879 29.5486C83.9949 29.9751 83.2322 30.231 82.0996 30.3163V31.6172H89.9121V30.3163C88.7102 30.2737 87.8781 30.0391 87.4158 29.6125C86.9997 29.186 86.7686 28.3543 86.7686 27.0748Z" fill="white"/>
<path d="M129.502 24.5418V23.2407H119.774V24.5418H121.257C121.789 24.5418 122.137 24.6271 122.322 24.8191C122.507 25.011 122.6 25.3523 122.6 25.8642V26.5681C122.6 27.8905 122.253 28.893 121.558 29.6182C120.863 30.3434 119.867 30.6847 118.593 30.6847C116.902 30.6847 115.652 30.0448 114.888 28.7437C114.1 27.4639 113.706 25.4163 113.706 22.6221C113.706 19.8279 114.146 17.7589 115.026 16.4152C115.907 15.0714 117.25 14.4102 119.08 14.4102C120.585 14.4102 121.905 14.9434 123.086 16.0099C124.267 17.0764 125.124 18.5481 125.703 20.4465L127.07 20.3398L126.815 13.237H125.588L124.036 14.5168C123.387 14.0262 122.646 13.6636 121.766 13.429C120.886 13.1944 119.89 13.0664 118.755 13.0664C117.458 13.0664 116.254 13.2157 115.165 13.5356C114.077 13.8343 113.104 14.3035 112.27 14.9008C110.973 15.8179 109.978 16.9484 109.306 18.2709C108.611 19.5933 108.264 21.065 108.264 22.6434C108.264 24.3285 108.588 25.8429 109.26 27.144C109.908 28.4664 110.881 29.5329 112.155 30.4074C112.988 30.9833 113.915 31.4099 114.911 31.7086C115.907 32.0072 116.949 32.1565 118.037 32.1565C119.334 32.1565 120.539 31.9432 121.65 31.4953C122.762 31.0687 123.665 30.4288 124.383 29.6396L125.773 32.1351H127.047V25.9069C127.047 25.395 127.139 25.0323 127.348 24.8617C127.533 24.6697 127.904 24.5844 128.436 24.5844H129.502V24.5418Z" fill="white"/>
<path d="M135.605 30.0782C135.42 30.2481 135.051 30.3119 134.497 30.3119H133.113V31.6503H151.245L151.614 24.8305L150.253 24.703C149.723 26.7426 148.892 28.1873 147.785 29.0159C146.678 29.8445 145.017 30.2694 142.825 30.2694C141.879 30.2694 141.303 30.1844 141.095 30.0144C140.864 29.8445 140.772 29.4833 140.772 28.9521V16.2048C140.772 15.6736 140.864 15.3125 141.072 15.1425C141.257 14.9725 141.626 14.8876 142.179 14.8876H143.886V13.5703H133.136V14.8876H134.544C135.074 14.8876 135.443 14.9725 135.628 15.1213C135.812 15.2912 135.905 15.6524 135.905 16.2048V29.0159C135.905 29.547 135.812 29.9082 135.605 30.0782Z" fill="white"/>
<path d="M157.923 30.0763C157.738 30.2465 157.368 30.3103 156.813 30.3103H155.447V31.6503H173.797L174.167 24.865L172.802 24.7587C172.27 26.8219 171.437 28.2683 170.28 29.0978C169.123 29.9487 167.411 30.3528 165.097 30.3528C164.194 30.3528 163.616 30.2677 163.384 30.0976C163.153 29.9274 163.037 29.5658 163.037 29.0128V22.9719H163.431C164.611 22.9719 165.49 23.2272 166.068 23.7377C166.647 24.2482 167.063 25.1415 167.295 26.4178H168.66V18.1222H167.295C167.063 19.4197 166.647 20.3131 166.068 20.8236C165.49 21.3341 164.611 21.6106 163.431 21.6106H163.037V16.1866C163.037 15.6336 163.153 15.272 163.361 15.1018C163.569 14.9316 164.125 14.8465 165.027 14.8465C167.156 14.8465 168.73 15.2294 169.794 16.0164C170.858 16.8034 171.622 18.1435 172.108 20.0791H173.45L173.219 13.5703H155.447V14.8891H156.813C157.368 14.8891 157.738 14.9742 157.923 15.1443C158.108 15.3145 158.201 15.6761 158.201 16.2079V29.0341C158.201 29.5445 158.108 29.9062 157.923 30.0763Z" fill="white"/>
<path d="M179.07 13.5703L178.656 20.3689H180.013C180.266 18.6268 180.795 17.2458 181.577 16.2473C182.359 15.2487 183.302 14.7601 184.406 14.7601C184.866 14.7601 185.188 14.8451 185.349 15.015C185.51 15.185 185.602 15.5249 185.602 16.0348V29.0159C185.602 29.5682 185.51 29.9082 185.326 30.0781C185.142 30.2269 184.797 30.3118 184.245 30.3118H182.888V31.6503H193.145V30.3118H191.834C191.282 30.3118 190.914 30.2269 190.73 30.0781C190.546 29.9294 190.454 29.5682 190.454 29.0371V16.0561C190.454 15.5462 190.546 15.2062 190.707 15.0363C190.868 14.8663 191.19 14.7813 191.673 14.7813C192.777 14.7813 193.72 15.27 194.502 16.2685C195.284 17.2671 195.79 18.648 196.043 20.3902H197.376L196.939 13.5916H179.07V13.5703Z" fill="white"/>
<path d="M221.376 18.8568C220.914 17.7072 220.243 16.7067 219.341 15.8552C218.347 14.8972 217.26 14.1947 216.034 13.7476C214.809 13.3006 213.398 13.0664 211.779 13.0664C210.23 13.0664 208.82 13.3006 207.594 13.7476C206.368 14.1947 205.258 14.8972 204.31 15.8126C203.408 16.6854 202.715 17.6859 202.229 18.8355C201.766 19.9851 201.535 21.2198 201.535 22.5822C201.535 23.966 201.743 25.1794 202.183 26.2438C202.622 27.2869 203.316 28.2662 204.287 29.1603C205.305 30.1395 206.438 30.8846 207.663 31.353C208.889 31.8213 210.276 32.0555 211.803 32.0555C213.306 32.0555 214.693 31.8 215.988 31.3104C217.26 30.8207 218.416 30.0757 219.434 29.1177C220.359 28.2236 221.053 27.2656 221.469 26.2225C221.885 25.1794 222.116 23.966 222.116 22.5822C222.07 21.2411 221.839 20.0063 221.376 18.8568ZM215.433 28.6707C214.624 30.0118 213.421 30.6717 211.803 30.6717C210.161 30.6717 208.958 30.0118 208.172 28.6919C207.386 27.3721 206.993 25.3284 206.993 22.5822C206.993 19.8573 207.386 17.8137 208.172 16.4725C208.958 15.1314 210.184 14.4714 211.803 14.4714C213.445 14.4714 214.647 15.1314 215.456 16.4512C216.243 17.7711 216.636 19.8148 216.636 22.5609C216.636 25.3071 216.219 27.3295 215.433 28.6707Z" fill="white"/>
<path d="M240.19 14.8853C241.462 14.8853 242.318 15.0974 242.758 15.5215C243.198 15.9457 243.429 16.7941 243.429 18.0878V24.8322L233.063 13.5915H226.191V14.9065H226.492C226.932 14.9065 227.302 14.9489 227.579 15.0549C227.857 15.161 228.204 15.3943 228.551 15.776L229.06 16.2638V27.1015C229.06 28.3317 228.852 29.1588 228.459 29.5618C228.065 29.9859 227.302 30.2404 226.168 30.3253V31.619H233.989V30.3253C232.785 30.2829 231.952 30.0496 231.49 29.6254C231.05 29.2012 230.819 28.3529 230.819 27.1015V17.9393L243.66 31.8523H245.373V18.0878C245.373 16.8365 245.558 16.0093 245.951 15.5852C246.344 15.161 247.085 14.9489 248.172 14.8853V13.5703H240.143L240.19 14.8853Z" fill="white"/>
<path d="M59.1094 39.2812H61.1997V44.8809H62.1644V39.2812H64.2547V38.5176H59.1094V39.2812Z" fill="white"/>
<path d="M66.7724 38.5176H65.7871V44.8809H66.7724V38.5176Z" fill="white"/>
<path d="M72.6504 43.6972H72.6274L70.5829 38.418H69.1816V44.8823H70.0775V41.0899C70.0775 40.8744 70.0775 40.659 70.0546 40.4219C70.0546 40.2065 70.0316 39.991 70.0316 39.797C70.0316 39.6031 70.0086 39.4523 70.0086 39.323H70.0546L72.2139 44.8823H73.0409L75.2462 39.323H75.2921C75.2921 39.4523 75.2691 39.6031 75.2691 39.797C75.2691 39.991 75.2462 40.1849 75.2462 40.4004C75.2462 40.6159 75.2462 40.8098 75.2462 41.0037V44.8823H76.188V38.418H74.8097L72.6504 43.6972Z" fill="white"/>
<path d="M78.4863 44.8809H82.3179V44.1173H79.4386V41.9326H82.1366V41.169H79.4386V39.2812H82.3179V38.5176H78.4863V44.8809Z" fill="white"/>
<path d="M85.3552 38.5176H84.3984V44.8809H88.3395V44.1173H85.3552V38.5176Z" fill="white"/>
<path d="M89.9824 44.8809H93.9235V44.1173H90.9852V41.9326H93.7369V41.169H90.9852V39.2812H93.9235V38.5176H89.9824V44.8809Z" fill="white"/>
<path d="M98.9813 41.7538C98.7047 41.605 98.359 41.4563 97.9672 41.3076C97.6215 41.1801 97.3219 41.0738 97.1145 40.9464C96.9071 40.8189 96.7457 40.7127 96.6305 40.5852C96.5383 40.4577 96.4692 40.2665 96.4692 40.0752C96.4692 39.884 96.5153 39.7353 96.6074 39.6078C96.6996 39.4803 96.8379 39.3741 97.0223 39.2891C97.2067 39.2254 97.4371 39.1829 97.6907 39.1829C97.9903 39.1829 98.2668 39.2254 98.5434 39.2891C98.82 39.3528 99.0735 39.4378 99.3501 39.5441L99.6497 38.8004C99.3731 38.6942 99.0505 38.5879 98.7508 38.5242C98.4282 38.4605 98.0825 38.418 97.7368 38.418C97.2989 38.418 96.9071 38.4817 96.5613 38.6092C96.2156 38.7367 95.9621 38.9279 95.7777 39.1829C95.5934 39.4378 95.5012 39.7353 95.5012 40.0965C95.5012 40.3514 95.5473 40.5852 95.6395 40.7764C95.7316 40.9676 95.8469 41.1376 96.0082 41.2863C96.1695 41.4351 96.3539 41.5625 96.5613 41.6688C96.7688 41.775 97.0223 41.8813 97.2758 41.9662C97.6446 42.0937 97.9442 42.2212 98.1977 42.3274C98.4282 42.4337 98.5895 42.5612 98.7047 42.7099C98.82 42.8586 98.8661 43.0286 98.8661 43.2198C98.8661 43.4323 98.82 43.6023 98.7047 43.751C98.5895 43.8997 98.4282 44.006 98.2207 44.091C98.0133 44.176 97.7368 44.2184 97.4141 44.2184C97.0453 44.2184 96.6996 44.176 96.3539 44.091C96.0082 44.006 95.7086 43.921 95.4551 43.8147V44.6646C95.6164 44.7284 95.8008 44.7921 95.9852 44.8346C96.1926 44.8771 96.4 44.9196 96.6305 44.9408C96.861 44.9621 97.1145 44.9833 97.368 44.9833C97.875 44.9833 98.3129 44.9196 98.6817 44.7709C99.0504 44.6221 99.327 44.4309 99.5344 44.1547C99.7419 43.8785 99.8341 43.5598 99.8341 43.1773C99.8341 42.8374 99.7649 42.5612 99.6266 42.3487C99.4883 42.1362 99.2579 41.9237 98.9813 41.7538Z" fill="white"/>
<path d="M104.87 41.7538C104.587 41.605 104.232 41.4563 103.831 41.3076C103.476 41.1801 103.169 41.0738 102.957 40.9464C102.744 40.8189 102.579 40.7127 102.461 40.5852C102.366 40.4577 102.295 40.2665 102.295 40.0752C102.295 39.884 102.343 39.7353 102.437 39.6078C102.532 39.4803 102.673 39.3741 102.862 39.2891C103.051 39.2254 103.287 39.1829 103.547 39.1829C103.854 39.1829 104.138 39.2254 104.421 39.2891C104.705 39.3528 104.965 39.4378 105.248 39.5441L105.555 38.8004C105.272 38.6942 104.941 38.5879 104.634 38.5242C104.303 38.4605 103.949 38.418 103.595 38.418C103.146 38.418 102.744 38.4817 102.39 38.6092C102.035 38.7367 101.776 38.9279 101.587 39.1829C101.398 39.4378 101.303 39.7353 101.303 40.0965C101.303 40.3514 101.35 40.5852 101.445 40.7764C101.539 40.9676 101.657 41.1376 101.823 41.2863C101.988 41.4351 102.177 41.5625 102.39 41.6688C102.602 41.775 102.862 41.8813 103.122 41.9662C103.5 42.0937 103.807 42.2212 104.067 42.3274C104.303 42.4337 104.469 42.5612 104.587 42.7099C104.705 42.8586 104.752 43.0286 104.752 43.2198C104.752 43.4323 104.705 43.6023 104.587 43.751C104.469 43.8997 104.303 44.006 104.091 44.091C103.878 44.176 103.595 44.2184 103.264 44.2184C102.886 44.2184 102.532 44.176 102.177 44.091C101.823 44.006 101.516 43.921 101.256 43.8147V44.6646C101.421 44.7284 101.61 44.7921 101.799 44.8346C102.012 44.8771 102.224 44.9196 102.461 44.9408C102.697 44.9621 102.957 44.9833 103.217 44.9833C103.736 44.9833 104.185 44.9196 104.563 44.7709C104.941 44.6221 105.225 44.4309 105.437 44.1547C105.65 43.8785 105.744 43.5598 105.744 43.1773C105.744 42.8374 105.673 42.5612 105.532 42.3487C105.39 42.1362 105.154 41.9237 104.87 41.7538Z" fill="white"/>
<path d="M110.562 44.8809H114.504V44.1173H111.542V41.9326H114.317V41.169H111.542V39.2812H114.504V38.5176H110.562V44.8809Z" fill="white"/>
<path d="M117.431 38.5176H116.475V44.8809H120.416V44.1173H117.431V38.5176Z" fill="white"/>
<path d="M122.166 44.8809H125.998V44.1173H123.118V41.9326H125.816V41.169H123.118V39.2812H125.998V38.5176H122.166V44.8809Z" fill="white"/>
<path d="M130.854 42.2975H132.392V44.1094C132.231 44.152 132.025 44.1946 131.841 44.216C131.658 44.2373 131.405 44.2586 131.107 44.2586C130.533 44.2586 130.074 44.152 129.707 43.9388C129.339 43.7257 129.087 43.4273 128.903 43.0649C128.742 42.6812 128.651 42.2549 128.651 41.7433C128.651 41.2317 128.742 40.7841 128.949 40.4004C129.156 40.0167 129.431 39.7396 129.821 39.5264C130.212 39.3133 130.648 39.2067 131.176 39.2067C131.497 39.2067 131.795 39.2493 132.094 39.3133C132.392 39.3772 132.668 39.4625 132.897 39.569L133.241 38.8017C132.943 38.6738 132.622 38.5885 132.277 38.5245C131.933 38.4606 131.566 38.418 131.199 38.418C130.441 38.418 129.798 38.5459 129.27 38.823C128.742 39.1001 128.329 39.4838 128.054 39.9741C127.778 40.4643 127.641 41.0399 127.641 41.7007C127.641 42.3828 127.778 42.9796 128.031 43.4699C128.283 43.9602 128.651 44.3438 129.133 44.5996C129.615 44.8554 130.212 44.9833 130.923 44.9833C131.405 44.9833 131.841 44.962 132.209 44.8981C132.576 44.8341 132.966 44.7489 133.333 44.6423V41.4875H130.854V42.2975Z" fill="white"/>
<path d="M137.285 38.418L134.646 44.8823H135.656L136.413 42.9773H139.12L139.877 44.8823H140.887L138.271 38.418H137.285ZM136.711 42.1639L137.445 40.2588C137.468 40.1946 137.491 40.0876 137.537 39.9806C137.583 39.8735 137.606 39.7451 137.652 39.6166C137.698 39.4882 137.721 39.3598 137.767 39.2314C137.789 39.317 137.835 39.4454 137.881 39.5739C137.927 39.7023 137.973 39.8521 138.019 39.9806C138.065 40.109 138.088 40.216 138.111 40.2802L138.845 42.1853H136.711V42.1639Z" fill="white"/>
<path d="M147.027 42.0165C147.027 42.2104 147.027 42.4043 147.051 42.6198C147.074 42.8353 147.074 43.0292 147.074 43.2232C147.074 43.4171 147.097 43.5679 147.097 43.6972H147.074L143.472 38.418H142.311V44.8823H143.217V41.3269C143.217 41.1115 143.217 40.896 143.193 40.702C143.193 40.4866 143.17 40.2926 143.17 40.0987C143.147 39.9048 143.147 39.7324 143.147 39.5816H143.193L146.818 44.8823H148.003V38.418H147.097V42.0165H147.027Z" fill="white"/>
<path d="M151.593 39.8628C151.778 39.6503 152.033 39.4803 152.311 39.3528C152.588 39.2466 152.913 39.1829 153.283 39.1829C153.584 39.1829 153.862 39.2254 154.116 39.2891C154.371 39.3528 154.626 39.4378 154.857 39.5441L155.227 38.8004C154.95 38.6729 154.649 38.5879 154.301 38.5242C153.977 38.4605 153.63 38.418 153.283 38.418C152.751 38.418 152.264 38.503 151.871 38.6517C151.454 38.8004 151.107 39.0341 150.829 39.3316C150.551 39.629 150.343 39.969 150.181 40.3727C150.042 40.7764 149.973 41.2226 149.973 41.69C149.973 42.3487 150.088 42.9436 150.32 43.4323C150.551 43.921 150.899 44.3034 151.385 44.5797C151.848 44.8559 152.45 44.9833 153.167 44.9833C153.538 44.9833 153.885 44.9621 154.163 44.9196C154.44 44.8771 154.718 44.8134 154.996 44.7071V43.9422C154.718 44.0272 154.44 44.091 154.163 44.1334C153.885 44.1759 153.584 44.2184 153.283 44.2184C152.774 44.2184 152.357 44.1122 152.01 43.921C151.663 43.7085 151.431 43.4323 151.246 43.0498C151.084 42.6674 150.991 42.2212 150.991 41.7113C150.991 41.3288 151.038 40.9676 151.153 40.6702C151.246 40.3302 151.408 40.0752 151.593 39.8628Z" fill="white"/>
<path d="M156.871 44.8809H160.812V44.1173H157.874V41.9326H160.649V41.169H157.874V39.2812H160.812V38.5176H156.871V44.8809Z" fill="white"/>
<path d="M166.721 38.5176H165.846V44.8809H166.721V38.5176Z" fill="white"/>
<path d="M173.848 42.0165C173.848 42.2104 173.848 42.4043 173.871 42.6198C173.871 42.8353 173.894 43.0292 173.894 43.2232C173.894 43.4171 173.917 43.5679 173.917 43.6972H173.894L170.293 38.418H169.131V44.8823H170.037V41.3269C170.037 41.1115 170.037 40.896 170.014 40.702C170.014 40.4866 169.991 40.2926 169.991 40.0987C169.967 39.9048 169.967 39.7324 169.967 39.5816H170.014L173.639 44.8823H174.824V38.418H173.917V42.0165H173.848Z" fill="white"/>
<path d="M180.078 44.8809H184.019V44.1173H181.063V41.9326H183.855V41.169H181.063V39.2812H184.019V38.5176H180.078V44.8809Z" fill="white"/>
<path d="M188.4 42.5901C188.354 42.7386 188.285 42.8871 188.239 43.0568C188.193 43.2265 188.146 43.375 188.1 43.5234C188.054 43.6719 188.031 43.8204 187.985 43.9477C187.962 43.8204 187.915 43.6719 187.869 43.5234C187.823 43.375 187.777 43.2053 187.731 43.0568C187.685 42.9083 187.615 42.7386 187.569 42.6113L186.022 38.5176H185.006L187.454 44.8809H188.47L190.917 38.5176H189.901L188.4 42.5901Z" fill="white"/>
<path d="M192.34 44.8809H196.281V44.1173H193.343V41.9326H196.118V41.169H193.343V39.2812H196.281V38.5176H192.34V44.8809Z" fill="white"/>
<path d="M202.063 41.6993C202.271 41.5508 202.433 41.3811 202.572 41.1478C202.71 40.9144 202.756 40.6599 202.756 40.3205C202.756 39.9175 202.664 39.5782 202.479 39.3024C202.294 39.0267 202.017 38.8358 201.625 38.7085C201.232 38.5812 200.77 38.5176 200.169 38.5176H198.252V44.8809H199.222V42.272H200.493L202.179 44.8809H203.288L201.347 42.0387C201.625 41.9538 201.856 41.8477 202.063 41.6993ZM200.192 41.5296H199.245V39.26H200.123C200.677 39.26 201.093 39.3448 201.37 39.5145C201.648 39.6842 201.763 39.96 201.763 40.363C201.763 40.7448 201.648 41.0417 201.394 41.2326C201.139 41.4447 200.724 41.5296 200.192 41.5296Z" fill="white"/>
<path d="M206.735 41.572L205.005 38.5176H203.943L206.25 42.4416V44.8809H207.219V42.3992L209.527 38.5176H208.465L206.735 41.572Z" fill="white"/>
<path d="M217.891 38.8782C217.381 38.6449 216.756 38.5176 216.038 38.5176H213.906V44.8809H215.806C216.594 44.8809 217.242 44.7537 217.798 44.5204C218.354 44.287 218.771 43.9264 219.049 43.4386C219.327 42.9507 219.489 42.3568 219.489 41.6356C219.489 40.9569 219.35 40.3842 219.072 39.9175C218.818 39.4509 218.424 39.1115 217.891 38.8782ZM217.821 43.5022C217.381 43.9052 216.709 44.1173 215.806 44.1173H214.902V39.26H215.968C216.501 39.26 216.964 39.3448 217.335 39.5145C217.706 39.6842 217.984 39.9599 218.192 40.2993C218.377 40.6599 218.493 41.1054 218.493 41.6568C218.493 42.4841 218.285 43.0992 217.821 43.5022Z" fill="white"/>
<path d="M221.57 44.8809H225.402V44.1173H222.523V41.9326H225.221V41.169H222.523V39.2812H225.402V38.5176H221.57V44.8809Z" fill="white"/>
<path d="M226.605 39.2812H228.731V44.8809H229.735V39.2812H231.86V38.5176H226.605V39.2812Z" fill="white"/>
<path d="M235.045 38.418L232.406 44.8823H233.416L234.173 42.9773H236.88L237.637 44.8823H238.646L236.031 38.418H235.045ZM234.471 42.1639L235.205 40.2588C235.228 40.1946 235.251 40.0876 235.297 39.9806C235.343 39.8735 235.366 39.7451 235.412 39.6166C235.457 39.4882 235.48 39.3598 235.526 39.2314C235.549 39.317 235.595 39.4454 235.641 39.5739C235.687 39.7023 235.733 39.8521 235.779 39.9806C235.825 40.109 235.847 40.216 235.87 40.2802L236.605 42.1853H234.471V42.1639Z" fill="white"/>
<path d="M241.056 38.5176H240.07V44.8809H241.056V38.5176Z" fill="white"/>
<path d="M244.425 38.5176H243.463V44.8809H247.404V44.1173H244.425V38.5176Z" fill="white"/>
<path d="M26.3223 16.4755C26.1914 16.6638 26.0321 16.8364 25.8558 16.9881C25.7534 17.077 25.6453 17.1607 25.5316 17.2339C25.4235 17.3071 25.3097 17.3699 25.1902 17.4326C25.0822 17.4849 24.9684 17.532 24.8546 17.5738V22.4589H25.5259V17.4274H25.8501V22.4589H26.5214V17.4274H26.8456V22.4589H27.5169V17.4274H27.8411V22.4589H28.5123V17.4274H28.8366V22.4589H29.5078V17.4274H29.8321V22.4589H30.5033V17.4274H41.3229V29.3L31.2485 29.5406L41.3229 29.7812V35.0742C41.3229 41.3087 36.8858 46.7481 30.5033 48.5316V43.9656H29.8321V48.7042C29.724 48.7304 29.6159 48.7513 29.5078 48.7775V43.9656H28.8366V48.9134L28.5123 48.9814V43.9709H27.8411V49.1174L27.5169 49.1854V43.9709H26.8456V49.3214L26.5214 49.3894V43.9709H25.8501V49.5254L25.5259 49.5934V43.9709H24.8546V49.7241L24.5304 49.7921V43.9709H23.8591V49.9281L23.6942 49.9595L23.5292 49.9281V43.9709H22.858V49.7921L22.5337 49.7241V43.9709H21.8625V49.5881L21.5382 49.5201V43.9709H20.867V49.3894L20.5427 49.3214V43.9709H19.8715V49.1854L19.5472 49.1174V43.9709H18.876V48.9814L18.5517 48.9134V43.9656H17.8805V48.7775C17.7724 48.7565 17.6643 48.7304 17.5563 48.7042V43.9656H16.885V48.5316C10.5025 46.7481 6.06544 41.3087 6.06544 35.0742V29.8021L17.0727 29.5406L6.06544 29.2791V17.4326H16.885V22.4641H17.5563V17.4326H17.8805V22.4641H18.5517V17.4326H18.876V22.4641H19.5472V17.4326H19.8715V22.4641H20.5484V17.4326H20.8727V22.4641H21.5439V17.4326H21.8682V22.4641H22.5394V17.5791C22.4256 17.5372 22.3119 17.4902 22.2038 17.4379C22.0843 17.3803 21.9705 17.3123 21.8625 17.2391C21.7487 17.1607 21.6406 17.0822 21.5382 16.9933C21.3619 16.8416 21.2083 16.669 21.0718 16.4807C21.049 16.4493 21.0319 16.4232 21.0092 16.3918H6.06544H4.92773V17.4379V35.0742C4.92773 36.8159 5.24629 38.5262 5.88341 40.1632C6.49777 41.7532 7.39655 43.2282 8.54563 44.5462C9.69472 45.8642 11.0656 46.9887 12.6186 47.8883C14.2114 48.8088 15.9578 49.4678 17.8065 49.8392L23.4552 50.9794L23.6999 51.0265L23.9445 50.9794L28.9959 49.9595H29.1665C29.1779 49.9438 29.1893 49.9333 29.2007 49.9176L29.5932 49.8392C31.4419 49.4678 33.1826 48.8088 34.7811 47.8883C36.3341 46.9939 37.705 45.8694 38.8541 44.5462C40.0032 43.2282 40.9019 41.7532 41.5163 40.1632C42.1477 38.5314 42.472 36.8159 42.472 35.0742V17.4326V16.3866H41.3343H26.3791C26.3621 16.4127 26.3393 16.4441 26.3223 16.4755Z" fill="white"/>
<path d="M23.3258 2.42352C23.4508 2.36935 23.5929 2.33684 23.7406 2.33684C23.894 2.33684 24.0361 2.36935 24.1668 2.42894C24.1611 2.17431 24.2634 1.91968 24.4906 1.70298C24.8713 1.33999 24.6554 1.15579 24.3429 0.977013C23.9963 0.781978 23.627 0.727801 23.2463 0.912001C22.7406 1.15579 22.6951 1.33458 23.036 1.76799C23.2292 2.00636 23.3258 2.21765 23.3258 2.42352Z" fill="white"/>
<path d="M22.2251 3.2427C22.4422 3.22684 22.9322 2.67717 22.9266 2.45518C22.921 2.16978 22.5313 1.72581 22.2697 1.71524C22.0024 1.69938 21.6016 2.16449 21.6016 2.48161C21.6071 2.76702 22.008 3.25856 22.2251 3.2427Z" fill="white"/>
<path d="M24.475 2.47243C24.5259 2.84608 24.8424 3.03035 25.1929 3.13784C25.3681 3.18902 25.7977 2.64134 25.7977 2.40077C25.7977 2.11925 25.4416 1.70977 25.1986 1.71489C24.9046 1.72001 24.4354 2.19091 24.475 2.47243Z" fill="white"/>
<path d="M22.9258 17.6094V22.3979H23.5883V17.7089C23.3637 17.7036 23.1391 17.667 22.9258 17.6094Z" fill="white"/>
<path d="M23.9199 17.7089V22.3979H24.5825V17.6094C24.3691 17.6618 24.1445 17.6984 23.9199 17.7089Z" fill="white"/>
<path d="M24.9716 12.2088C25.5166 12.4341 25.9822 12.8007 26.3058 13.2564H45.864V35.5288C45.864 37.5507 45.4893 39.5411 44.7569 41.4373C44.0416 43.2864 43.0026 44.9992 41.6628 46.5287C40.3286 48.0635 38.7333 49.3678 36.9336 50.4049C35.0828 51.4735 33.0617 52.233 30.9157 52.6678L23.6942 54.1292L16.4727 52.6678C14.3324 52.233 12.3056 51.4735 10.4548 50.4049C8.65514 49.3625 7.05983 48.0583 5.72567 46.5287C4.39151 44.994 3.34689 43.2811 2.63156 41.4373C1.91054 39.5464 1.53584 37.5559 1.53584 35.534V13.2564H21.094C21.4176 12.8007 21.8832 12.4341 22.4282 12.2088H0.400391V35.5288C0.400391 44.2659 6.9917 51.8244 16.24 53.6944L23.6999 55.203L31.1598 53.6944C40.4081 51.8244 46.9994 44.2659 46.9994 35.5288V12.2088H24.9716Z" fill="white"/>
<path d="M23.5898 53.8774C24.3826 53.8774 25.0253 53.2845 25.0253 52.553C25.0253 51.8215 24.3826 51.2285 23.5898 51.2285C22.797 51.2285 22.1543 51.8215 22.1543 52.553C22.1543 53.2845 22.797 53.8774 23.5898 53.8774Z" fill="white"/>
<path d="M23.9461 12.2194C23.8657 12.2141 23.7853 12.2088 23.7049 12.2088C23.6245 12.2088 23.5441 12.2141 23.4637 12.2194C22.6311 12.2831 21.8961 12.6755 21.4138 13.2588C21.0463 13.7043 20.8281 14.2611 20.8281 14.8604C20.8281 15.4172 21.0176 15.9369 21.3334 16.3612C21.3564 16.393 21.3794 16.4195 21.4023 16.4513C21.4425 16.4991 21.4827 16.5415 21.5229 16.5892C21.6205 16.6953 21.7354 16.7961 21.8502 16.8862C22.0569 17.0453 22.2809 17.1779 22.5278 17.2786C22.6311 17.3211 22.7402 17.3582 22.8551 17.39C22.8895 17.4006 22.924 17.4112 22.9584 17.4165C23.1422 17.4642 23.3374 17.4908 23.5326 17.5014C23.5843 17.5067 23.6417 17.5067 23.6992 17.5067C23.7566 17.5067 23.8083 17.5067 23.8657 17.5014C24.0609 17.4908 24.2561 17.4642 24.4399 17.4165C24.4743 17.4059 24.5088 17.4006 24.5432 17.39C24.6581 17.3582 24.7672 17.3211 24.8705 17.2786C25.1174 17.1779 25.3471 17.0453 25.5481 16.8862C25.6629 16.7961 25.7778 16.6953 25.8754 16.5892C25.9156 16.5468 25.9558 16.4991 25.996 16.4513C26.0189 16.4248 26.0419 16.393 26.0649 16.3612C26.3807 15.9316 26.5702 15.4172 26.5702 14.8604C26.5702 14.2558 26.352 13.7043 25.9845 13.2588C25.5136 12.6808 24.7787 12.2831 23.9461 12.2194ZM24.549 16.5468C24.3423 16.637 24.1126 16.6953 23.8714 16.7112C23.8197 16.7165 23.7623 16.7165 23.7049 16.7165C23.6475 16.7165 23.5958 16.7165 23.5384 16.7112C23.2972 16.6953 23.0675 16.637 22.8608 16.5468C22.7402 16.4938 22.6311 16.4354 22.522 16.3665C22.0167 16.0271 21.6894 15.4809 21.6894 14.8657C21.6894 14.293 21.9708 13.7786 22.4129 13.4391C22.4991 13.3755 22.5909 13.3172 22.6828 13.2641C22.9814 13.105 23.3259 13.0096 23.6934 13.0096C24.0609 13.0096 24.4112 13.105 24.704 13.2641C24.8016 13.3172 24.8935 13.3755 24.9739 13.4391C25.416 13.7786 25.6974 14.293 25.6974 14.8657C25.6974 15.4809 25.3701 16.0324 24.8648 16.3665C24.7787 16.4354 24.6638 16.4991 24.549 16.5468Z" fill="white"/>
<path d="M44.2382 33.0942C45.0311 33.0942 45.6738 32.5013 45.6738 31.7698C45.6738 31.0383 45.0311 30.4453 44.2382 30.4453C43.4454 30.4453 42.8027 31.0383 42.8027 31.7698C42.8027 32.5013 43.4454 33.0942 44.2382 33.0942Z" fill="white"/>
<path d="M3.27145 33.0942C4.06427 33.0942 4.70697 32.5013 4.70697 31.7698C4.70697 31.0383 4.06427 30.4453 3.27145 30.4453C2.47864 30.4453 1.83594 31.0383 1.83594 31.7698C1.83594 32.5013 2.47864 33.0942 3.27145 33.0942Z" fill="white"/>
<path d="M11.5547 16.1821C12.3475 16.1821 12.9902 15.5892 12.9902 14.8577C12.9902 14.1262 12.3475 13.5332 11.5547 13.5332C10.7618 13.5332 10.1191 14.1262 10.1191 14.8577C10.1191 15.5892 10.7618 16.1821 11.5547 16.1821Z" fill="white"/>
<path d="M35.8457 16.1821C36.6385 16.1821 37.2812 15.5892 37.2812 14.8577C37.2812 14.1262 36.6385 13.5332 35.8457 13.5332C35.0529 13.5332 34.4102 14.1262 34.4102 14.8577C34.4102 15.5892 35.0529 16.1821 35.8457 16.1821Z" fill="white"/>
<path d="M18.2938 10.4761C19.6998 10.0077 21.6088 9.72351 23.7063 9.72351C25.8095 9.72351 27.7185 10.0077 29.1245 10.4761L30.2047 6.66584C30.2847 6.37639 29.9075 6.17114 29.6731 6.37639L29.2616 6.73426C28.8101 4.96596 26.9926 3.57659 24.7065 3.26082C24.7008 3.30819 24.6951 3.35555 24.6836 3.39766C24.6836 3.40292 24.6836 3.40292 24.6779 3.40818C24.6436 3.53975 24.5807 3.66079 24.4893 3.76605C24.4607 3.80289 24.4264 3.83447 24.3921 3.86604C24.4379 3.88709 24.4836 3.90814 24.5293 3.93446C24.8665 4.11339 25.1809 4.39758 25.4495 4.7765C25.781 5.23963 26.0153 5.80274 26.1525 6.41323L25.781 6.8132C25.7181 6.87635 25.701 6.96582 25.7238 7.05002L25.9181 7.66577C26.0039 7.9447 25.9067 8.23941 25.6724 8.42887C25.238 8.77095 24.5693 8.60254 24.3864 8.10258L24.1121 7.33948L24.9465 5.36067C25.078 5.0449 25.0208 4.68177 24.7865 4.41863L24.4321 4.01866L24.3293 3.90288L24.2435 3.80815L24.2378 3.80289L24.175 3.73447L24.1464 3.7029C24.2778 3.6029 24.3693 3.46607 24.3979 3.30293C24.4036 3.27661 24.4036 3.2503 24.4093 3.22398C24.4093 3.21346 24.4093 3.20293 24.4093 3.18714C24.4093 3.11347 24.3979 3.04505 24.375 2.9819C24.3407 2.89243 24.2893 2.80822 24.2207 2.73981C24.0892 2.60824 23.9063 2.5293 23.7006 2.5293C23.4662 2.5293 23.2548 2.63455 23.1233 2.7977C23.1062 2.81875 23.0947 2.8398 23.0776 2.86085C23.0205 2.95558 22.9862 3.0661 22.9862 3.18714C22.9862 3.19767 22.9862 3.2082 22.9862 3.22398C22.9862 3.2503 22.9919 3.27661 22.9976 3.30293C23.0262 3.46081 23.1176 3.6029 23.2491 3.7029L23.2205 3.73447L23.1576 3.80289L23.1519 3.80815L23.0662 3.90288L22.9519 4.02919L22.6089 4.41863C22.3746 4.68177 22.3175 5.03964 22.4489 5.36067L23.2834 7.33948L23.009 8.10258C22.8318 8.60254 22.1574 8.77095 21.7231 8.42887C21.4887 8.23941 21.3916 7.93943 21.4773 7.66577L21.6716 7.05002C21.7002 6.96582 21.6773 6.87635 21.6145 6.8132L21.243 6.40796C21.3744 5.79222 21.6145 5.23436 21.946 4.77124C22.2146 4.39758 22.5232 4.11339 22.8547 3.93446C22.9061 3.90814 22.9576 3.88183 23.009 3.86078C22.9747 3.8292 22.9404 3.79763 22.9119 3.76079C22.8204 3.65553 22.7575 3.53449 22.7233 3.40292C22.7175 3.3766 22.7118 3.35029 22.7061 3.32924C22.7004 3.30819 22.7004 3.28187 22.6947 3.25556C20.4085 3.57133 18.591 4.9607 18.1395 6.72899L17.728 6.37112C17.4937 6.16588 17.1165 6.37112 17.1965 6.66058L18.2938 10.4761ZM25.4838 3.96077C27.2441 4.46074 28.5472 5.68696 28.7644 7.16054L28.3472 7.52367C28.17 7.67629 28.13 7.92364 28.2614 8.11837L28.5358 8.51834L28.1871 8.80779C27.8214 9.10777 27.2498 9.03935 26.9812 8.66043L26.9183 8.57097C26.8669 8.49729 26.8269 8.41308 26.8097 8.32362C26.8269 8.18678 26.8383 8.04469 26.844 7.90259C26.8555 7.87628 26.8669 7.84997 26.8783 7.82891L27.2612 7.15528C27.3013 7.0816 27.3013 6.99213 27.2612 6.91845L26.8497 6.20272C26.8097 6.12904 26.7354 6.08694 26.6554 6.07115C26.4268 5.20805 26.0153 4.47126 25.4838 3.96077ZM21.9345 3.96077C21.403 4.47126 20.9915 5.20805 20.7629 6.06588C20.6829 6.08167 20.6143 6.12377 20.5686 6.19745L20.157 6.91319C20.117 6.98687 20.1113 7.07634 20.157 7.15002L20.5343 7.82365C20.5457 7.84997 20.5628 7.87102 20.5686 7.89733C20.5743 8.03943 20.5857 8.18152 20.6028 8.31835C20.58 8.40256 20.5457 8.48676 20.4885 8.5657L20.4257 8.65517C20.1571 9.03409 19.5855 9.10251 19.2254 8.80253L18.8768 8.51308L19.1511 8.1131C19.2826 7.92364 19.2483 7.67103 19.0654 7.51841L18.6482 7.15528C18.8654 5.68696 20.1685 4.466 21.9345 3.96077Z" fill="white"/>
<path d="M29.0011 10.8019C27.6123 10.3493 25.7472 10.0703 23.6951 10.0703C21.6486 10.0703 19.7893 10.344 18.4004 10.7966L18.5478 11.4809C19.9196 11.0545 21.7223 10.8019 23.6951 10.8019C25.6905 10.8019 27.5045 11.0651 28.8821 11.4967L29.0011 10.8019Z" fill="white"/>
<path d="M15.8297 23.0743C15.8523 23.0217 15.8637 22.9849 15.8637 22.9849C15.8637 22.9849 15.9485 22.9796 16.022 22.9954C16.0955 23.0112 16.1917 23.09 16.1917 23.09C16.1917 23.09 16.1577 22.9271 16.039 22.8692C15.9202 22.8114 15.8071 22.8114 15.8071 22.8114C15.8071 22.8114 15.8128 22.7431 15.7675 22.7063C15.7223 22.6695 15.677 22.659 15.677 22.659C15.677 22.659 15.7392 22.5854 15.8241 22.5538C15.9089 22.5223 15.9768 22.5276 15.9768 22.5276C15.9768 22.5276 15.8354 22.4382 15.7279 22.4382C15.6205 22.4435 15.6035 22.4855 15.6035 22.4855C15.6035 22.4855 15.5922 22.4119 15.3773 22.3961C15.1568 22.3751 14.8966 22.8167 14.7326 22.8377C14.5743 22.864 14.4951 22.7957 14.3368 22.6905C14.2802 22.6485 14.235 22.6222 14.2067 22.6064C13.8787 22.7168 13.5507 22.8114 13.217 22.8955C13.2057 22.8955 13.2001 22.885 13.2114 22.8798C13.4941 22.7589 13.7882 22.68 14.0766 22.5854C14.1275 22.5696 14.1784 22.5486 14.2293 22.5328C14.3198 22.475 14.4895 22.3541 14.6704 22.1491C14.9532 21.8337 14.9984 21.6287 14.9758 21.3028C14.9532 20.9821 15.038 20.714 15.185 20.5405C15.3321 20.3671 15.6997 20.2146 15.7505 20.1148C15.8014 20.0201 15.7279 19.9203 15.7279 19.9203C15.7279 19.9203 15.7901 19.873 15.875 19.8414C15.9598 19.8151 16.0955 19.8204 16.0955 19.8204C16.0955 19.8204 16.005 19.7415 15.9145 19.7205C15.8184 19.6942 15.6431 19.7468 15.6431 19.7468C15.6431 19.7468 15.6601 19.689 15.6431 19.5996C15.6261 19.5102 15.5752 19.4682 15.5752 19.4682C15.5752 19.4682 15.6488 19.4367 15.7279 19.4051C15.8071 19.3736 15.9372 19.3736 15.9372 19.3736C15.9372 19.3736 15.8297 19.3157 15.7166 19.3157C15.6035 19.3157 15.4904 19.3631 15.4904 19.3631C15.4904 19.3631 15.4395 19.2842 15.3773 19.2527C15.3151 19.2211 15.2246 19.1948 15.2246 19.1948C15.2246 19.1948 15.2642 19.158 15.3038 19.1213C15.3377 19.0897 15.3999 19.0582 15.3999 19.0582C15.3999 19.0582 15.2246 19.0371 15.1398 19.0845C15.055 19.1265 15.0606 19.1843 15.0606 19.1843C15.0606 19.1843 14.8797 19.1633 14.7213 19.2422C14.563 19.321 14.5573 19.5523 14.5912 19.7836C14.6252 20.0149 14.4668 20.4512 14.365 20.6877C14.2632 20.9243 14.0314 21.1556 14.0314 21.1556C14.0314 21.1556 13.9409 21.0557 13.7599 20.9295C13.6412 20.8507 13.5677 20.8139 13.5281 20.7981C13.217 20.877 12.8664 20.8559 12.5441 20.8349C12.5045 20.8297 12.4988 20.7718 12.5441 20.7718C12.7873 20.7824 13.0361 20.7981 13.2792 20.7666C13.398 20.7508 13.5055 20.7245 13.6072 20.6877C13.6299 20.6615 13.6581 20.6352 13.6751 20.6089C13.7317 20.5195 13.7147 20.4407 13.7147 20.4407C13.7147 20.4407 13.6129 20.5405 13.4941 20.6141C13.3754 20.6877 13.2284 20.6089 13.1039 20.5248C13.0191 20.467 12.9965 20.3618 12.9908 20.304C12.7986 20.3461 12.5893 20.3566 12.4084 20.3671C12.0408 20.3881 11.6619 20.3934 11.3226 20.5563C11.2773 20.5773 11.2377 20.5195 11.283 20.4932C11.4526 20.3881 11.5657 20.2619 11.6053 20.0727C11.611 20.0569 11.6393 20.0622 11.6393 20.078C11.6223 20.2251 11.5714 20.3303 11.4866 20.4249C11.7128 20.3618 11.9559 20.3303 12.1935 20.3145C12.4027 20.304 12.6176 20.2987 12.8268 20.2672C12.9117 20.2514 12.9965 20.2304 13.0813 20.2094C13.1775 20.1358 13.3245 20.0201 13.3301 19.9623C13.3471 19.873 13.2623 19.7678 13.1718 19.7573C13.0757 19.7415 12.9682 19.8099 12.9682 19.8099C12.9682 19.8099 12.9852 19.7626 12.9682 19.7047C12.9513 19.6469 12.8551 19.5838 12.8551 19.5838C12.8551 19.5838 12.8721 19.6417 12.8834 19.689C12.8947 19.7363 12.8551 19.8309 12.8551 19.8309C12.8551 19.8309 12.7646 19.873 12.5837 19.9413C12.4027 20.0096 12.2839 19.9623 12.0917 19.9097C11.8994 19.8624 12.0464 19.6259 12.1708 19.5102C12.2953 19.3946 12.3914 19.4472 12.5724 19.4314C12.7477 19.4156 12.8947 19.3578 12.8947 19.3578C12.8947 19.3578 12.9286 19.4156 12.9682 19.4524C13.0021 19.4892 13.0248 19.5733 13.0248 19.5733C13.0248 19.5733 13.0417 19.484 13.0474 19.4209C13.053 19.3525 13.0248 19.2895 13.0248 19.2895C13.0248 19.2895 13.1379 19.2001 13.1661 19.1423C13.2001 19.0845 13.1831 18.9373 13.1435 18.8164C13.1039 18.6955 13.0135 18.6271 13.0135 18.6271C13.0135 18.6271 13.053 18.4957 12.9173 18.4537C12.7873 18.4116 12.0464 18.6692 12.0464 18.6692C12.0464 18.6692 11.9446 18.4326 11.7297 18.3853C11.5092 18.3433 11.1246 18.4116 11.1246 18.4116C11.1246 18.4116 11.2038 18.2592 11.2717 18.2171C11.3395 18.1751 11.4922 18.1172 11.4922 18.1172C11.4922 18.1172 11.0568 18.112 10.7627 18.2171C10.4686 18.3275 10.3442 18.7323 10.3442 18.7323C10.3442 18.7323 10.0558 18.6114 9.9314 18.6376C9.80699 18.6692 9.75044 18.7112 9.79002 18.8426C9.81264 18.9215 9.8692 19.0161 9.90878 19.0792C10.0162 19.1528 10.135 19.2054 10.2651 19.2474C10.282 19.2527 10.282 19.279 10.2594 19.279C10.1406 19.2842 10.0332 19.2316 9.94271 19.1633C9.90313 19.2264 9.77306 19.4367 9.7674 19.6732C9.76175 19.9571 9.89182 20.0727 9.89182 20.0727C9.89182 20.0727 9.66561 20.4827 9.7674 20.7876C9.8692 21.0925 10.0388 21.2555 10.0388 21.2555C10.0388 21.2555 9.89747 21.7233 10.118 21.9441C10.3386 22.1596 10.7231 22.3436 10.7231 22.3436C10.7231 22.3436 10.6835 22.454 10.5591 22.5486C10.4347 22.6432 10.2085 22.6853 10.2085 22.6853C10.2085 22.6853 10.3782 22.8167 10.5817 22.843C10.6383 22.8535 10.6948 22.843 10.7401 22.8272C10.8023 22.7589 10.8871 22.7168 10.9663 22.6695C11.0115 22.6642 11.0568 22.659 11.102 22.6485C11.0964 22.659 11.0907 22.6642 11.0907 22.6642C11.0907 22.6642 11.1133 22.6537 11.1416 22.638C11.1586 22.6327 11.1755 22.6274 11.1925 22.6222C11.1416 22.6642 11.0851 22.701 11.0172 22.7273C10.9719 22.7431 10.9324 22.7589 10.8871 22.7799C10.8306 22.8482 10.7175 22.9481 10.5308 23.0375C10.2142 23.1952 9.58078 23.4002 9.1623 23.7156C8.99265 23.8417 8.87955 24.031 8.84561 24.1256C8.82865 24.1729 8.82299 24.236 8.82299 24.2991C8.67596 24.3516 8.5063 24.3726 8.34796 24.278C7.97472 24.0572 7.94645 23.3897 8.21789 23.0269C8.495 22.6642 9.26975 21.8232 9.19623 21.0978C9.12272 20.3776 8.79472 19.9728 8.4441 19.9676C8.09348 19.9623 7.10948 20.0464 6.97942 20.6667C6.84369 21.287 6.96811 21.3764 6.96811 21.3764C6.96811 21.3764 7.05859 21.1451 7.14342 21.0557C7.22824 20.9663 7.33569 20.9243 7.33569 20.9243C7.33569 20.9243 7.40921 20.9506 7.37528 21.1976C7.34135 21.4447 7.11514 21.8495 7.11514 21.8705C7.11514 21.8915 7.29045 21.7864 7.35265 21.7233C7.41486 21.655 7.50534 21.5235 7.50534 21.5235C7.50534 21.5235 7.40921 21.8021 7.26783 21.9441C7.12645 22.086 6.99073 22.2542 6.99073 22.2542C6.99073 22.2542 7.31307 22.1123 7.3979 21.9914C7.48272 21.8705 7.61279 21.7023 7.61279 21.7023C7.61279 21.7023 7.55624 21.8021 7.55624 21.9441C7.55624 22.086 7.63541 22.2752 7.63541 22.2752C7.63541 22.2752 7.58452 22.0597 7.65803 21.9073C7.73155 21.7496 8.003 21.7653 8.09913 21.3501C8.19527 20.9348 7.91251 20.6562 7.95776 20.488C8.003 20.3198 8.05955 20.2199 8.30838 20.2094C8.5572 20.1989 8.82865 20.2777 8.92479 20.7245C9.02658 21.1713 8.83996 21.5866 8.50631 22.0492C8.167 22.5118 7.675 22.9376 7.65803 23.5736C7.64107 24.2097 7.88424 24.4725 8.26879 24.5987C8.44975 24.6565 8.65899 24.6355 8.8343 24.5934C8.83996 24.667 8.85127 24.7564 8.86258 24.8878C8.8852 25.1296 8.82865 25.1401 8.5572 25.24C8.29141 25.3399 7.97472 25.1769 7.7881 25.282C7.60148 25.3924 7.94079 26.0338 7.94644 26.2913C7.9521 26.5489 7.66369 27.0378 7.73721 27.1587C7.81072 27.2796 8.003 27.2323 8.13307 27.2638C8.26313 27.2953 8.23486 27.5529 8.331 27.6107C8.42713 27.6686 8.50065 27.6528 8.50065 27.6528C8.50065 27.6528 8.56286 27.7316 8.60244 27.7947C8.64203 27.8578 8.58548 27.9787 8.58548 27.9787C8.58548 27.9787 8.72686 27.9051 8.76079 27.8105C8.79472 27.7211 8.74382 27.6475 8.74382 27.6475C8.74382 27.6475 8.8343 27.6738 8.91348 27.6791C8.99265 27.6843 9.04354 27.6633 9.04354 27.6633C9.04354 27.6633 9.09444 27.7054 9.13968 27.7737C9.18492 27.842 9.17361 27.9997 9.17361 27.9997C9.17361 27.9997 9.28106 27.842 9.28672 27.7422C9.29237 27.6423 9.2641 27.5739 9.2641 27.5739C9.2641 27.5739 9.33196 27.5582 9.36589 27.5372C9.39982 27.5214 9.40547 27.5161 9.40547 27.5161C9.40547 27.5161 9.46202 27.5529 9.51292 27.6581C9.55816 27.7632 9.56947 27.8683 9.56947 27.8683C9.56947 27.8683 9.67127 27.7106 9.65996 27.6055C9.64865 27.5004 9.61471 27.4741 9.61471 27.4741C9.61471 27.4741 9.73347 27.411 9.73347 27.2691C9.73913 27.1324 9.63733 27.0325 9.34327 26.9169C9.04354 26.8065 8.6081 26.8853 8.51196 26.7013C8.41582 26.5121 8.47237 26.3018 8.73251 26.1547C8.98699 26.0075 9.11141 26.0916 9.71085 26.06C10.1011 26.039 10.3386 25.7919 10.4517 25.6185C10.4517 25.4503 10.5422 25.3083 10.7005 25.1874C10.9663 24.9772 11.1473 24.7511 11.3339 24.4778C11.3452 24.462 11.3735 24.4725 11.3678 24.4883C11.3056 24.6986 11.1642 24.8825 10.9946 25.0297C10.8249 25.1822 10.6383 25.2926 10.5535 25.4608C10.5761 25.4976 10.6722 25.671 10.8079 25.7499C10.955 25.8393 11.3961 25.7026 11.6336 25.6973C11.8711 25.6921 11.8598 25.7499 11.8146 25.9128C11.7693 26.0758 11.6223 26.5226 11.7637 26.6698C11.905 26.817 12.3348 26.7749 12.5554 26.7907C12.7759 26.8065 12.8099 27.1219 12.9513 27.185C13.0926 27.248 13.381 27.227 13.4546 27.2165C13.5337 27.2112 13.6129 27.3742 13.7599 27.4215C13.907 27.4688 14.0936 27.39 14.0936 27.39C14.0936 27.39 14.1841 27.432 14.2237 27.5056C14.2632 27.5792 14.2802 27.6896 14.2802 27.6896C14.2802 27.6896 14.3594 27.5582 14.3481 27.4425C14.3424 27.3269 14.2632 27.2953 14.2632 27.2953C14.2632 27.2953 14.4329 27.2901 14.4838 27.2428C14.5347 27.2007 14.546 27.1692 14.546 27.1692C14.546 27.1692 14.6139 27.1955 14.6987 27.2533C14.7779 27.3111 14.8118 27.432 14.8118 27.432C14.8118 27.432 14.874 27.2165 14.8005 27.1114C14.727 27.0115 14.6421 27.001 14.6421 27.001C14.6421 27.001 14.6761 26.9064 14.6874 26.8433C14.693 26.7802 14.693 26.7487 14.693 26.7487C14.693 26.7487 14.8005 26.7119 14.8966 26.7487C14.9928 26.7854 15.055 26.9064 15.055 26.9064C15.055 26.9064 15.0719 26.7276 14.9701 26.6172C14.8683 26.5068 14.7157 26.5279 14.7157 26.5279C14.7157 26.5279 14.7948 26.4333 14.4838 26.3491C14.1728 26.265 13.9522 26.4017 13.7204 26.4806C13.4885 26.5594 13.381 26.3229 12.9682 26.1757C12.5554 26.0285 12.742 25.855 12.8834 25.5028C13.0304 25.1454 13.07 24.9824 12.8608 24.6565C12.6515 24.3306 12.0917 24.278 12.0917 24.278C12.0917 24.278 13.0248 24.0099 13.3132 23.8049C13.5224 23.6577 13.5959 23.5106 13.6242 23.4422C13.5281 23.4422 13.4489 23.4632 13.3697 23.5211C13.3471 23.5368 13.3301 23.5053 13.3415 23.4895C13.4037 23.4212 13.4941 23.3739 13.5903 23.3686C13.6186 23.3686 13.6581 23.3634 13.6977 23.3686C13.7373 23.3529 13.7939 23.3423 13.873 23.3476C14.037 23.3581 14.3424 23.5526 14.5347 23.5736C14.7213 23.5999 14.7948 23.5158 14.8853 23.4685C14.9814 23.4212 15.3038 23.5263 15.5017 23.5053C15.6997 23.4843 15.694 23.3423 15.694 23.3423C15.694 23.3423 15.7845 23.3476 15.858 23.3581C15.9372 23.3686 16.0163 23.4422 16.0163 23.4422C16.0163 23.4422 15.9937 23.3003 15.9202 23.232C15.841 23.1584 15.7619 23.1636 15.7619 23.1636C15.7619 23.1636 15.8071 23.1268 15.8297 23.0743ZM11.4074 18.8952C11.4809 18.8374 11.5884 18.7796 11.6279 18.7848C11.611 18.8216 11.5884 18.8532 11.6166 18.8847C11.6449 18.9162 11.741 18.9215 11.7524 18.9688C11.6279 18.953 11.5657 18.9478 11.4696 18.9793C11.3735 19.0056 11.2604 19.0634 11.2604 19.0634C11.2604 19.0634 11.3282 18.953 11.4074 18.8952ZM11.1359 19.8782C11.0737 19.8046 11.0455 19.7521 11.0624 19.6574C11.0624 19.6417 11.0851 19.6417 11.0851 19.6574C11.102 19.7731 11.1868 19.8414 11.2773 19.9097C11.2886 19.9203 11.2943 19.9413 11.283 19.9518C11.1077 20.1726 11.0907 20.3881 11.1755 20.6404C11.1812 20.6615 11.1586 20.6772 11.1359 20.6667C10.9437 20.5616 11.0172 20.283 11.0794 20.1253C11.102 20.078 11.1246 20.0254 11.1586 19.9833C11.2095 19.9203 11.1868 19.9413 11.1359 19.8782ZM10.9833 20.8086C11.2377 20.8297 11.3282 21.1713 11.3339 21.3658C11.3339 21.4289 11.3395 21.4973 11.3282 21.5603C11.3113 21.6655 11.3282 21.6497 11.4357 21.6918C11.5431 21.7338 11.594 21.7916 11.6279 21.8915C11.6336 21.902 11.611 21.9125 11.6053 21.902C11.5375 21.7759 11.3904 21.7391 11.2491 21.7075C11.2264 21.7023 11.2208 21.6812 11.2208 21.6655C11.2547 21.513 11.2547 21.3396 11.2038 21.1871C11.1529 21.0347 11.0681 20.9611 10.955 20.8507C10.9493 20.8349 10.955 20.8034 10.9833 20.8086ZM10.7288 19.8782C10.6666 19.8046 10.6383 19.7521 10.6553 19.6574C10.6553 19.6417 10.6779 19.6417 10.6779 19.6574C10.6948 19.7731 10.7797 19.8414 10.8702 19.9097C10.8815 19.9203 10.8871 19.9413 10.8758 19.9518C10.7005 20.1726 10.6835 20.3881 10.7684 20.6404C10.774 20.6615 10.7514 20.6772 10.7288 20.6667C10.5365 20.5616 10.61 20.283 10.6722 20.1253C10.6948 20.078 10.7175 20.0254 10.7514 19.9833C10.8023 19.9203 10.7853 19.9413 10.7288 19.8782ZM10.4177 19.9308C10.3103 20.0622 10.2255 20.2199 10.1859 20.3881C10.1406 20.6036 10.1689 20.7508 10.2594 20.9453C10.2707 20.9663 10.2481 20.9926 10.2255 20.9768C9.96533 20.8191 10.0671 20.4249 10.1576 20.2041C10.1859 20.1358 10.2198 20.0674 10.2651 20.0044C10.3216 19.9203 10.3499 19.9308 10.2707 19.8572C10.1576 19.7468 10.0954 19.6574 10.1124 19.4997C10.1124 19.484 10.135 19.484 10.135 19.4997C10.135 19.6732 10.282 19.7783 10.4121 19.8835C10.4234 19.8992 10.4291 19.9203 10.4177 19.9308ZM10.7571 21.9073C10.8023 21.7233 10.7966 21.5183 10.7401 21.3343C10.6779 21.1503 10.5817 21.0557 10.4347 20.9243C10.4177 20.9085 10.4291 20.8822 10.4517 20.8822C10.7571 20.9138 10.8588 21.329 10.8645 21.5603C10.8645 21.6392 10.8645 21.7233 10.8532 21.8021C10.8362 21.9073 10.8475 21.8915 10.955 21.9283C11.0964 21.9756 11.1755 22.0492 11.2264 22.1754C11.2321 22.1859 11.2095 22.1964 11.2038 22.1859C11.1303 22.0282 10.9437 21.9914 10.7797 21.9493C10.7627 21.9493 10.7514 21.9283 10.7571 21.9073ZM11.0624 22.6117C11.0907 22.5906 11.1246 22.5696 11.1473 22.5433C11.283 22.4119 11.3508 22.2384 11.4809 22.1018C11.4922 22.0913 11.5092 22.1018 11.5035 22.1175C11.4809 22.2174 11.4357 22.3173 11.3735 22.4067C11.3226 22.4277 11.266 22.4645 11.2151 22.5013C11.1868 22.5223 11.1586 22.5538 11.1359 22.5801C11.119 22.5959 11.0907 22.6064 11.0624 22.6117ZM12.9513 23.0007C12.9343 23.0217 12.9004 23.0007 12.9173 22.9796C12.9852 22.864 13.0757 22.7851 13.1775 22.6958C13.234 22.6432 13.2792 22.5959 13.3188 22.5381C13.1435 22.7168 12.8325 22.8219 12.6006 22.8377C12.5837 22.8377 12.5837 22.8167 12.595 22.8114C12.9004 22.7431 13.1322 22.5906 13.3754 22.4172C13.381 22.4119 13.3867 22.4119 13.3924 22.4172C13.4037 22.4014 13.4093 22.3856 13.415 22.3699C13.4206 22.3541 13.4432 22.3646 13.4432 22.3751C13.4489 22.6642 13.0983 22.7904 12.9513 23.0007Z" fill="white"/>
<path d="M15.8297 35.4024C15.8523 35.3498 15.8637 35.313 15.8637 35.313C15.8637 35.313 15.9485 35.3078 16.022 35.3235C16.0955 35.3393 16.1917 35.4181 16.1917 35.4181C16.1917 35.4181 16.1577 35.2552 16.039 35.1974C15.9202 35.1395 15.8071 35.1395 15.8071 35.1395C15.8071 35.1395 15.8128 35.0712 15.7675 35.0344C15.7223 34.9976 15.677 34.9871 15.677 34.9871C15.677 34.9871 15.7392 34.9135 15.8241 34.882C15.9089 34.8504 15.9768 34.8557 15.9768 34.8557C15.9768 34.8557 15.8354 34.7663 15.7279 34.7663C15.6205 34.7716 15.6035 34.8136 15.6035 34.8136C15.6035 34.8136 15.5922 34.74 15.3773 34.7243C15.1568 34.7032 14.8966 35.1448 14.7326 35.1658C14.5743 35.1921 14.4951 35.1238 14.3368 35.0186C14.2802 34.9766 14.235 34.9503 14.2067 34.9345C13.8787 35.0449 13.5507 35.1395 13.217 35.2237C13.2057 35.2237 13.2001 35.2131 13.2114 35.2079C13.4941 35.087 13.7882 35.0081 14.0766 34.9135C14.1275 34.8977 14.1784 34.8767 14.2293 34.8609C14.3198 34.8031 14.4895 34.6822 14.6704 34.4772C14.9532 34.1618 14.9984 33.9568 14.9758 33.6309C14.9532 33.3102 15.038 33.0421 15.185 32.8687C15.3321 32.6952 15.6997 32.5428 15.7505 32.4429C15.8014 32.3483 15.7279 32.2484 15.7279 32.2484C15.7279 32.2484 15.7901 32.2011 15.875 32.1695C15.9598 32.1433 16.0955 32.1485 16.0955 32.1485C16.0955 32.1485 16.005 32.0697 15.9145 32.0486C15.8184 32.0224 15.6431 32.0749 15.6431 32.0749C15.6431 32.0749 15.6601 32.0171 15.6431 31.9277C15.6261 31.8384 15.5752 31.7963 15.5752 31.7963C15.5752 31.7963 15.6488 31.7648 15.7279 31.7332C15.8071 31.7017 15.9372 31.7017 15.9372 31.7017C15.9372 31.7017 15.8297 31.6439 15.7166 31.6439C15.6035 31.6439 15.4904 31.6912 15.4904 31.6912C15.4904 31.6912 15.4395 31.6123 15.3773 31.5808C15.3151 31.5493 15.2246 31.523 15.2246 31.523C15.2246 31.523 15.2642 31.4862 15.3038 31.4494C15.3377 31.4178 15.3999 31.3863 15.3999 31.3863C15.3999 31.3863 15.2246 31.3653 15.1398 31.4126C15.055 31.4546 15.0606 31.5125 15.0606 31.5125C15.0606 31.5125 14.8797 31.4914 14.7213 31.5703C14.563 31.6491 14.5573 31.8804 14.5912 32.1117C14.6252 32.343 14.4668 32.7793 14.365 33.0159C14.2632 33.2524 14.0314 33.4837 14.0314 33.4837C14.0314 33.4837 13.9409 33.3838 13.7599 33.2577C13.6412 33.1788 13.5677 33.142 13.5281 33.1262C13.217 33.2051 12.8664 33.1841 12.5441 33.163C12.5045 33.1578 12.4988 33.1 12.5441 33.1C12.7873 33.1105 13.0361 33.1262 13.2792 33.0947C13.398 33.0789 13.5055 33.0527 13.6072 33.0159C13.6299 32.9896 13.6581 32.9633 13.6751 32.937C13.7317 32.8476 13.7147 32.7688 13.7147 32.7688C13.7147 32.7688 13.6129 32.8687 13.4941 32.9423C13.3754 33.0159 13.2284 32.937 13.1039 32.8529C13.0191 32.7951 12.9965 32.6899 12.9908 32.6321C12.7986 32.6742 12.5893 32.6847 12.4084 32.6952C12.0408 32.7162 11.6619 32.7215 11.3226 32.8844C11.2773 32.9055 11.2377 32.8476 11.283 32.8214C11.4526 32.7162 11.5657 32.5901 11.6053 32.4008C11.611 32.3851 11.6393 32.3903 11.6393 32.4061C11.6223 32.5533 11.5714 32.6584 11.4866 32.753C11.7128 32.6899 11.9559 32.6584 12.1935 32.6426C12.4027 32.6321 12.6176 32.6269 12.8268 32.5953C12.9117 32.5796 12.9965 32.5585 13.0813 32.5375C13.1775 32.4639 13.3245 32.3483 13.3301 32.2904C13.3471 32.2011 13.2623 32.0959 13.1718 32.0854C13.0757 32.0697 12.9682 32.138 12.9682 32.138C12.9682 32.138 12.9852 32.0907 12.9682 32.0329C12.9513 31.975 12.8551 31.912 12.8551 31.912C12.8551 31.912 12.8721 31.9698 12.8834 32.0171C12.8947 32.0644 12.8551 32.159 12.8551 32.159C12.8551 32.159 12.7646 32.2011 12.5837 32.2694C12.4027 32.3378 12.2839 32.2904 12.0917 32.2379C11.8994 32.1906 12.0464 31.954 12.1708 31.8384C12.2953 31.7227 12.3914 31.7753 12.5724 31.7595C12.7477 31.7437 12.8947 31.6859 12.8947 31.6859C12.8947 31.6859 12.9286 31.7437 12.9682 31.7805C13.0078 31.8173 13.0248 31.9014 13.0248 31.9014C13.0248 31.9014 13.0417 31.8121 13.0474 31.749C13.053 31.6807 13.0248 31.6176 13.0248 31.6176C13.0248 31.6176 13.1379 31.5282 13.1661 31.4704C13.2001 31.4126 13.1831 31.2654 13.1435 31.1445C13.1039 31.0236 13.0135 30.9553 13.0135 30.9553C13.0135 30.9553 13.053 30.8238 12.9173 30.7818C12.7873 30.7397 12.0464 30.9973 12.0464 30.9973C12.0464 30.9973 11.9446 30.7608 11.7297 30.7134C11.5092 30.6714 11.1246 30.7397 11.1246 30.7397C11.1246 30.7397 11.2038 30.5873 11.2717 30.5452C11.3395 30.5032 11.4922 30.4454 11.4922 30.4454C11.4922 30.4454 11.0568 30.4401 10.7627 30.5452C10.4686 30.6556 10.3442 31.0604 10.3442 31.0604C10.3442 31.0604 10.0558 30.9395 9.9314 30.9658C9.80699 30.9973 9.75044 31.0394 9.79002 31.1708C9.81264 31.2496 9.8692 31.3442 9.90878 31.4073C10.0162 31.4809 10.135 31.5335 10.2651 31.5755C10.282 31.5808 10.282 31.6071 10.2594 31.6071C10.1406 31.6123 10.0332 31.5598 9.94271 31.4914C9.90313 31.5545 9.77306 31.7648 9.7674 32.0013C9.76175 32.2852 9.89182 32.4008 9.89182 32.4008C9.89182 32.4008 9.66561 32.8108 9.7674 33.1157C9.8692 33.4206 10.0388 33.5836 10.0388 33.5836C10.0388 33.5836 9.89747 34.0514 10.118 34.2722C10.3386 34.4877 10.7231 34.6717 10.7231 34.6717C10.7231 34.6717 10.6835 34.7821 10.5591 34.8767C10.4347 34.9713 10.2085 35.0134 10.2085 35.0134C10.2085 35.0134 10.3782 35.1448 10.5817 35.1711C10.6383 35.1816 10.6948 35.1711 10.7401 35.1553C10.8023 35.087 10.8871 35.0449 10.9663 34.9976C11.0115 34.9924 11.0568 34.9871 11.102 34.9766C11.0964 34.9871 11.0907 34.9924 11.0907 34.9924C11.0907 34.9924 11.1133 34.9818 11.1416 34.9661C11.1586 34.9608 11.1755 34.9556 11.1925 34.9503C11.1416 34.9924 11.0851 35.0292 11.0172 35.0554C10.9719 35.0712 10.9324 35.087 10.8871 35.108C10.8306 35.1763 10.7175 35.2762 10.5308 35.3656C10.2142 35.5233 9.58078 35.7283 9.1623 36.0437C8.99265 36.1699 8.87955 36.3591 8.84561 36.4537C8.82865 36.501 8.82299 36.5641 8.82299 36.6272C8.67596 36.6797 8.5063 36.7008 8.34796 36.6062C7.97472 36.3854 7.94645 35.7178 8.21789 35.3551C8.495 34.9924 9.26975 34.1513 9.19623 33.4259C9.12272 32.7057 8.79472 32.301 8.4441 32.2957C8.09348 32.2904 7.10948 32.3745 6.97942 32.9948C6.84369 33.6151 6.96811 33.7045 6.96811 33.7045C6.96811 33.7045 7.05859 33.4732 7.14342 33.3838C7.22824 33.2945 7.33569 33.2524 7.33569 33.2524C7.33569 33.2524 7.40921 33.2787 7.37528 33.5258C7.34135 33.7728 7.11514 34.1776 7.11514 34.1986C7.11514 34.2196 7.29045 34.1145 7.35265 34.0514C7.41486 33.9831 7.50534 33.8517 7.50534 33.8517C7.50534 33.8517 7.40921 34.1303 7.26783 34.2722C7.12645 34.4141 6.99073 34.5823 6.99073 34.5823C6.99073 34.5823 7.31307 34.4404 7.3979 34.3195C7.48272 34.1986 7.61279 34.0304 7.61279 34.0304C7.61279 34.0304 7.55624 34.1303 7.55624 34.2722C7.55624 34.4141 7.63541 34.6034 7.63541 34.6034C7.63541 34.6034 7.58452 34.3878 7.65803 34.2354C7.73155 34.0777 8.003 34.0935 8.09913 33.6782C8.19527 33.2629 7.91251 32.9843 7.95776 32.8161C8.003 32.6479 8.05955 32.548 8.30838 32.5375C8.5572 32.527 8.82865 32.6058 8.92479 33.0527C9.02658 33.4995 8.83996 33.9147 8.50631 34.3773C8.167 34.8399 7.675 35.2657 7.65803 35.9018C7.64107 36.5378 7.88424 36.8006 8.26879 36.9268C8.44975 36.9846 8.65899 36.9636 8.8343 36.9216C8.83996 36.9951 8.85127 37.0845 8.86258 37.2159C8.8852 37.4577 8.82865 37.4682 8.5572 37.5681C8.29141 37.668 7.97472 37.505 7.7881 37.6102C7.60148 37.7206 7.94079 38.3619 7.94644 38.6195C7.9521 38.877 7.66369 39.3659 7.73721 39.4868C7.81072 39.6077 8.003 39.5604 8.13307 39.5919C8.26313 39.6235 8.23486 39.881 8.331 39.9389C8.42713 39.9967 8.50065 39.9809 8.50065 39.9809C8.50065 39.9809 8.56286 40.0598 8.60244 40.1229C8.64203 40.1859 8.58548 40.3068 8.58548 40.3068C8.58548 40.3068 8.72686 40.2332 8.76079 40.1386C8.79472 40.0493 8.74382 39.9757 8.74382 39.9757C8.74382 39.9757 8.8343 40.0019 8.91348 40.0072C8.99265 40.0125 9.04354 39.9914 9.04354 39.9914C9.04354 39.9914 9.09444 40.0335 9.13968 40.1018C9.18492 40.1702 9.17361 40.3279 9.17361 40.3279C9.17361 40.3279 9.28106 40.1702 9.28672 40.0703C9.29237 39.9704 9.2641 39.9021 9.2641 39.9021C9.2641 39.9021 9.33196 39.8863 9.36589 39.8653C9.39982 39.8495 9.40547 39.8443 9.40547 39.8443C9.40547 39.8443 9.46202 39.881 9.51292 39.9862C9.55816 40.0913 9.56947 40.1964 9.56947 40.1964C9.56947 40.1964 9.67127 40.0387 9.65996 39.9336C9.64865 39.8285 9.61471 39.8022 9.61471 39.8022C9.61471 39.8022 9.73347 39.7391 9.73347 39.5972C9.73913 39.4605 9.63733 39.3606 9.34327 39.245C9.04354 39.1346 8.6081 39.2135 8.51196 39.0295C8.41582 38.8402 8.47237 38.63 8.73251 38.4828C8.98699 38.3356 9.11141 38.4197 9.71085 38.3882C10.1011 38.3671 10.3386 38.1201 10.4517 37.9466C10.4517 37.7784 10.5422 37.6365 10.7005 37.5156C10.9663 37.3053 11.1473 37.0793 11.3339 36.8059C11.3452 36.7901 11.3735 36.8007 11.3678 36.8164C11.3056 37.0267 11.1642 37.2107 10.9946 37.3579C10.8249 37.5103 10.6383 37.6207 10.5535 37.7889C10.5761 37.8257 10.6722 37.9992 10.8079 38.078C10.955 38.1674 11.3961 38.0307 11.6336 38.0255C11.8711 38.0202 11.8598 38.078 11.8146 38.241C11.7693 38.4039 11.6223 38.8507 11.7637 38.9979C11.905 39.1451 12.3348 39.1031 12.5554 39.1188C12.7759 39.1346 12.8099 39.45 12.9513 39.5131C13.0926 39.5762 13.381 39.5551 13.4546 39.5446C13.5337 39.5394 13.6129 39.7023 13.7599 39.7496C13.907 39.7969 14.0936 39.7181 14.0936 39.7181C14.0936 39.7181 14.1841 39.7601 14.2237 39.8337C14.2632 39.9073 14.2802 40.0177 14.2802 40.0177C14.2802 40.0177 14.3594 39.8863 14.3481 39.7707C14.3424 39.655 14.2632 39.6235 14.2632 39.6235C14.2632 39.6235 14.4329 39.6182 14.4838 39.5709C14.5347 39.5289 14.546 39.4973 14.546 39.4973C14.546 39.4973 14.6139 39.5236 14.6987 39.5814C14.7779 39.6392 14.8118 39.7601 14.8118 39.7601C14.8118 39.7601 14.874 39.5446 14.8005 39.4395C14.727 39.3396 14.6421 39.3291 14.6421 39.3291C14.6421 39.3291 14.6761 39.2345 14.6874 39.1714C14.693 39.1083 14.693 39.0768 14.693 39.0768C14.693 39.0768 14.8005 39.04 14.8966 39.0768C14.9928 39.1136 15.055 39.2345 15.055 39.2345C15.055 39.2345 15.0719 39.0558 14.9701 38.9454C14.8683 38.835 14.7157 38.856 14.7157 38.856C14.7157 38.856 14.7948 38.7614 14.4838 38.6773C14.1728 38.5932 13.9522 38.7298 13.7204 38.8087C13.4885 38.8875 13.381 38.651 12.9682 38.5038C12.5554 38.3566 12.742 38.1831 12.8834 37.831C13.0304 37.4735 13.07 37.3105 12.8608 36.9846C12.6515 36.6587 12.0917 36.6062 12.0917 36.6062C12.0917 36.6062 13.0248 36.3381 13.3132 36.1331C13.5224 35.9859 13.5959 35.8387 13.6242 35.7703C13.5281 35.7703 13.4489 35.7914 13.3697 35.8492C13.3471 35.865 13.3301 35.8334 13.3415 35.8177C13.4037 35.7493 13.4941 35.702 13.5903 35.6968C13.6186 35.6968 13.6581 35.6915 13.6977 35.6968C13.7373 35.681 13.7939 35.6705 13.873 35.6757C14.037 35.6862 14.3424 35.8807 14.5347 35.9018C14.7213 35.928 14.7948 35.8439 14.8853 35.7966C14.9814 35.7493 15.3038 35.8545 15.5017 35.8334C15.6997 35.8124 15.694 35.6705 15.694 35.6705C15.694 35.6705 15.7845 35.6757 15.858 35.6862C15.9372 35.6968 16.0163 35.7703 16.0163 35.7703C16.0163 35.7703 15.9937 35.6284 15.9202 35.5601C15.841 35.4865 15.7619 35.4917 15.7619 35.4917C15.7619 35.4917 15.8071 35.4549 15.8297 35.4024ZM11.4074 31.2233C11.4809 31.1655 11.5884 31.1077 11.6279 31.113C11.611 31.1497 11.5884 31.1813 11.6166 31.2128C11.6449 31.2444 11.741 31.2496 11.7524 31.2969C11.6279 31.2812 11.5657 31.2759 11.4696 31.3074C11.3735 31.3337 11.2604 31.3916 11.2604 31.3916C11.2604 31.3916 11.3282 31.2812 11.4074 31.2233ZM11.1359 32.2063C11.0737 32.1327 11.0455 32.0802 11.0624 31.9856C11.0624 31.9698 11.0851 31.9698 11.0851 31.9856C11.102 32.1012 11.1868 32.1695 11.2773 32.2379C11.2886 32.2484 11.2943 32.2694 11.283 32.2799C11.1077 32.5007 11.0907 32.7162 11.1755 32.9685C11.1812 32.9896 11.1586 33.0053 11.1359 32.9948C10.9437 32.8897 11.0172 32.6111 11.0794 32.4534C11.102 32.4061 11.1246 32.3535 11.1586 32.3115C11.2095 32.2484 11.1868 32.2694 11.1359 32.2063ZM10.9833 33.1368C11.2377 33.1578 11.3282 33.4995 11.3339 33.694C11.3339 33.757 11.3395 33.8254 11.3282 33.8885C11.3113 33.9936 11.3282 33.9778 11.4357 34.0199C11.5431 34.0619 11.594 34.1198 11.6279 34.2196C11.6336 34.2301 11.611 34.2407 11.6053 34.2301C11.5375 34.104 11.3904 34.0672 11.2491 34.0356C11.2264 34.0304 11.2208 34.0094 11.2208 33.9936C11.2547 33.8412 11.2547 33.6677 11.2038 33.5152C11.1529 33.3628 11.0681 33.2892 10.955 33.1788C10.9493 33.163 10.955 33.1315 10.9833 33.1368ZM10.7288 32.2063C10.6666 32.1327 10.6383 32.0802 10.6553 31.9856C10.6553 31.9698 10.6779 31.9698 10.6779 31.9856C10.6948 32.1012 10.7797 32.1695 10.8702 32.2379C10.8815 32.2484 10.8871 32.2694 10.8758 32.2799C10.7005 32.5007 10.6835 32.7162 10.7684 32.9685C10.774 32.9896 10.7514 33.0053 10.7288 32.9948C10.5365 32.8897 10.61 32.6111 10.6722 32.4534C10.6948 32.4061 10.7175 32.3535 10.7514 32.3115C10.8023 32.2484 10.7853 32.2694 10.7288 32.2063ZM10.4177 32.2589C10.3103 32.3903 10.2255 32.548 10.1859 32.7162C10.1406 32.9318 10.1689 33.0789 10.2594 33.2734C10.2707 33.2945 10.2481 33.3207 10.2255 33.305C9.96533 33.1473 10.0671 32.753 10.1576 32.5322C10.1859 32.4639 10.2198 32.3956 10.2651 32.3325C10.3216 32.2484 10.3499 32.2589 10.2707 32.1853C10.1576 32.0749 10.0954 31.9856 10.1124 31.8279C10.1124 31.8121 10.135 31.8121 10.135 31.8279C10.135 32.0013 10.282 32.1065 10.4121 32.2116C10.4234 32.2274 10.4291 32.2484 10.4177 32.2589ZM10.7571 34.2354C10.8023 34.0514 10.7966 33.8464 10.7401 33.6624C10.6779 33.4784 10.5817 33.3838 10.4347 33.2524C10.4177 33.2366 10.4291 33.2104 10.4517 33.2104C10.7571 33.2419 10.8588 33.6572 10.8645 33.8885C10.8645 33.9673 10.8645 34.0514 10.8532 34.1303C10.8362 34.2354 10.8475 34.2196 10.955 34.2564C11.0964 34.3037 11.1755 34.3773 11.2264 34.5035C11.2321 34.514 11.2095 34.5245 11.2038 34.514C11.1303 34.3563 10.9437 34.3195 10.7797 34.2775C10.7627 34.2775 10.7514 34.2564 10.7571 34.2354ZM11.0624 34.9398C11.0907 34.9188 11.1246 34.8977 11.1473 34.8715C11.283 34.74 11.3508 34.5666 11.4809 34.4299C11.4922 34.4194 11.5092 34.4299 11.5035 34.4457C11.4809 34.5455 11.4357 34.6454 11.3735 34.7348C11.3226 34.7558 11.266 34.7926 11.2151 34.8294C11.1868 34.8504 11.1586 34.882 11.1359 34.9083C11.119 34.924 11.0907 34.9345 11.0624 34.9398ZM12.9513 35.3288C12.9343 35.3498 12.9004 35.3288 12.9173 35.3078C12.9852 35.1921 13.0757 35.1133 13.1775 35.0239C13.234 34.9713 13.2792 34.924 13.3188 34.8662C13.1435 35.0449 12.8325 35.1501 12.6006 35.1658C12.5837 35.1658 12.5837 35.1448 12.595 35.1395C12.9004 35.0712 13.1322 34.9188 13.3754 34.7453C13.381 34.74 13.3867 34.74 13.3924 34.7453C13.4037 34.7295 13.4093 34.7138 13.415 34.698C13.4206 34.6822 13.4432 34.6927 13.4432 34.7032C13.4489 34.9924 13.0983 35.1185 12.9513 35.3288Z" fill="white"/>
<path d="M7.02644 38.5957H6.91602V39.0032H7.02644V38.5957Z" fill="white"/>
<path d="M31.209 23.0691C31.209 23.0691 31.3059 22.985 31.3799 22.9745C31.454 22.9587 31.5395 22.964 31.5395 22.964C31.5395 22.964 31.5509 23.0008 31.5737 23.0533C31.5965 23.1059 31.6819 23.1637 31.6819 23.1637C31.6819 23.1637 31.5965 23.1585 31.5224 23.2321C31.4426 23.3057 31.4255 23.4423 31.4255 23.4423C31.4255 23.4423 31.511 23.3687 31.5851 23.3582C31.6648 23.3477 31.7503 23.3425 31.7503 23.3425C31.7503 23.3425 31.7446 23.4896 31.944 23.5054C32.1435 23.5264 32.474 23.416 32.5651 23.4686C32.662 23.5159 32.7304 23.6 32.9184 23.5737C33.1065 23.5475 33.4142 23.3582 33.5851 23.3477C33.6649 23.3425 33.7219 23.3582 33.7618 23.3687C33.8016 23.3687 33.8415 23.3687 33.87 23.3687C33.9726 23.374 34.0581 23.4213 34.1207 23.4896C34.1378 23.5054 34.115 23.5369 34.0923 23.5212C34.0125 23.4634 33.9327 23.4423 33.8358 23.4423C33.8586 23.5107 33.9384 23.6578 34.1492 23.805C34.4398 24.01 35.38 24.2781 35.38 24.2781C35.38 24.2781 34.8159 24.3254 34.6051 24.6566C34.3943 24.9825 34.4398 25.1507 34.5823 25.5029C34.7304 25.8603 34.9185 26.0338 34.4968 26.1757C34.0809 26.3229 33.9726 26.5595 33.739 26.4806C33.5053 26.4018 33.2831 26.2651 32.9697 26.3492C32.6563 26.4385 32.7361 26.5279 32.7361 26.5279C32.7361 26.5279 32.5765 26.5069 32.4797 26.6173C32.3771 26.7277 32.3942 26.9064 32.3942 26.9064C32.3942 26.9064 32.4569 26.7855 32.5538 26.7487C32.6506 26.7119 32.7589 26.7487 32.7589 26.7487C32.7589 26.7487 32.7589 26.7802 32.7646 26.8433C32.7703 26.9064 32.8102 27.001 32.8102 27.001C32.8102 27.001 32.7304 27.0063 32.6506 27.1114C32.5765 27.2113 32.6392 27.432 32.6392 27.432C32.6392 27.432 32.6734 27.3111 32.7532 27.2533C32.833 27.1955 32.907 27.1692 32.907 27.1692C32.907 27.1692 32.9184 27.2007 32.9697 27.2428C33.021 27.2849 33.1919 27.2954 33.1919 27.2954C33.1919 27.2954 33.1122 27.3269 33.1065 27.4425C33.1008 27.5582 33.1748 27.6896 33.1748 27.6896C33.1748 27.6896 33.1919 27.5792 33.2318 27.5056C33.2717 27.432 33.3629 27.39 33.3629 27.39C33.3629 27.39 33.5509 27.4636 33.6991 27.4215C33.8472 27.3742 33.927 27.2113 34.0068 27.2165C34.0866 27.2218 34.3772 27.2481 34.5139 27.185C34.6564 27.1219 34.6906 26.8065 34.9128 26.7907C35.135 26.775 35.5681 26.817 35.7105 26.6698C35.853 26.5227 35.7048 26.0706 35.6592 25.9129C35.6137 25.7499 35.6023 25.6974 35.8416 25.6974C36.0809 25.7026 36.5254 25.834 36.6735 25.7499C36.8046 25.6711 36.9071 25.4976 36.9299 25.4608C36.8445 25.2874 36.6564 25.177 36.4855 25.0298C36.3145 24.8826 36.1721 24.6934 36.1094 24.4884C36.1037 24.4726 36.1322 24.4621 36.1436 24.4779C36.3259 24.7512 36.5083 24.9772 36.7818 25.1875C36.9413 25.3084 37.0325 25.4503 37.0325 25.6185C37.1522 25.792 37.3858 26.0391 37.779 26.0601C38.3773 26.0916 38.5026 26.0075 38.7647 26.1547C39.0212 26.3019 39.0838 26.5121 38.987 26.7014C38.8901 26.8906 38.4513 26.8065 38.1493 26.9169C37.8473 27.0273 37.7505 27.1324 37.7562 27.2691C37.7619 27.4058 37.8758 27.4741 37.8758 27.4741C37.8758 27.4741 37.8416 27.5004 37.8302 27.6055C37.8188 27.7106 37.9214 27.8683 37.9214 27.8683C37.9214 27.8683 37.9271 27.7632 37.9784 27.6581C38.024 27.5529 38.0867 27.5161 38.0867 27.5161C38.0867 27.5161 38.0924 27.5214 38.1265 27.5372C38.1607 27.5529 38.2291 27.574 38.2291 27.574C38.2291 27.574 38.2006 27.6423 38.2063 27.7422C38.212 27.842 38.3203 27.9997 38.3203 27.9997C38.3203 27.9997 38.3146 27.842 38.3545 27.7737C38.4001 27.7054 38.4513 27.6633 38.4513 27.6633C38.4513 27.6633 38.5083 27.6843 38.5824 27.6791C38.6622 27.6738 38.7533 27.6476 38.7533 27.6476C38.7533 27.6476 38.6964 27.7211 38.7362 27.8105C38.7704 27.8999 38.9129 27.9787 38.9129 27.9787C38.9129 27.9787 38.8559 27.8578 38.8958 27.7947C38.9357 27.7317 38.9984 27.6528 38.9984 27.6528C38.9984 27.6528 39.0667 27.6686 39.1693 27.6108C39.2662 27.5529 39.2377 27.2901 39.3687 27.2638C39.4998 27.2323 39.6935 27.2796 39.7676 27.1587C39.8417 27.0378 39.5511 26.5489 39.5568 26.2914C39.5625 26.0338 39.9044 25.3925 39.7163 25.2821C39.5283 25.1717 39.2092 25.3347 38.9414 25.2401C38.6736 25.1402 38.6109 25.1297 38.6337 24.8879C38.6451 24.7565 38.6565 24.6618 38.6622 24.5935C38.8388 24.6356 39.0553 24.6566 39.232 24.5988C39.6195 24.4726 39.8645 24.2045 39.8474 23.5737C39.8303 22.9377 39.3346 22.5119 38.9927 22.0493C38.6508 21.5868 38.4684 21.1715 38.571 20.7247C38.6736 20.2779 38.9414 20.1938 39.1921 20.2096C39.4428 20.2201 39.4998 20.3199 39.5454 20.4882C39.591 20.6564 39.3061 20.9297 39.4029 21.3502C39.4998 21.7655 39.7733 21.755 39.8474 21.9074C39.9215 22.0651 39.8702 22.2754 39.8702 22.2754C39.8702 22.2754 39.9556 22.0861 39.95 21.9442C39.95 21.8023 39.893 21.7024 39.893 21.7024C39.893 21.7024 40.024 21.8706 40.1095 21.9915C40.195 22.1124 40.5198 22.2543 40.5198 22.2543C40.5198 22.2543 40.383 22.0861 40.2406 21.9442C40.0981 21.8023 40.0012 21.5237 40.0012 21.5237C40.0012 21.5237 40.0924 21.6604 40.1551 21.7234C40.2178 21.7918 40.3887 21.8916 40.3944 21.8706C40.3944 21.8496 40.1665 21.4448 40.1323 21.1978C40.0981 20.9507 40.1722 20.9244 40.1722 20.9244C40.1722 20.9244 40.2804 20.9665 40.3659 21.0559C40.4514 21.1452 40.5426 21.3765 40.5426 21.3765C40.5426 21.3765 40.6679 21.2924 40.5312 20.6669C40.3944 20.0466 39.4086 19.9625 39.0553 19.9678C38.7021 19.973 38.3716 20.3778 38.2975 21.0979C38.2234 21.8181 39.0098 22.6644 39.2833 23.0271C39.5625 23.3898 39.5283 24.0521 39.1522 24.2781C38.9927 24.3727 38.8217 24.3517 38.6736 24.2991C38.6736 24.2413 38.6622 24.1782 38.6508 24.1257C38.6223 24.0311 38.5026 23.8418 38.3317 23.7157C37.91 23.395 37.2718 23.1953 36.9527 23.0376C36.7647 22.943 36.6564 22.8431 36.5937 22.78C36.5482 22.7642 36.5083 22.7485 36.4627 22.7274C36.4 22.7012 36.343 22.6644 36.286 22.6223C36.3031 22.6276 36.3202 22.6328 36.3373 22.6381C36.3658 22.6538 36.3886 22.6644 36.3886 22.6644C36.3886 22.6644 36.3829 22.6591 36.3772 22.6486C36.4228 22.6591 36.4684 22.6696 36.514 22.6696C36.5937 22.7117 36.6792 22.7537 36.7419 22.8273C36.7932 22.8431 36.8445 22.8536 36.9014 22.8431C37.1066 22.8168 37.2775 22.6854 37.2775 22.6854C37.2775 22.6854 37.0496 22.6433 36.9242 22.5487C36.7989 22.4541 36.759 22.3437 36.759 22.3437C36.759 22.3437 37.1522 22.165 37.3687 21.9442C37.5909 21.7287 37.4485 21.2556 37.4485 21.2556C37.4485 21.2556 37.6194 21.0874 37.722 20.7878C37.8245 20.4829 37.5966 20.0729 37.5966 20.0729C37.5966 20.0729 37.7277 19.9572 37.722 19.6734C37.7163 19.4368 37.5909 19.2266 37.5453 19.1635C37.4485 19.2318 37.3402 19.2844 37.2262 19.2792C37.2034 19.2792 37.2034 19.2529 37.2205 19.2476C37.3516 19.2003 37.4713 19.153 37.5795 19.0794C37.6194 19.0163 37.6764 18.9217 37.6992 18.8429C37.7391 18.7114 37.6821 18.6694 37.5567 18.6379C37.4314 18.6116 37.1408 18.7325 37.1408 18.7325C37.1408 18.7325 37.0154 18.3277 36.7191 18.2173C36.4228 18.1069 35.984 18.1175 35.984 18.1175C35.984 18.1175 36.1322 18.1753 36.2063 18.2173C36.2746 18.2594 36.3544 18.4118 36.3544 18.4118C36.3544 18.4118 35.9612 18.3382 35.7447 18.3855C35.5225 18.4276 35.4256 18.6694 35.4256 18.6694C35.4256 18.6694 34.6792 18.4066 34.5481 18.4539C34.417 18.4959 34.4512 18.6273 34.4512 18.6273C34.4512 18.6273 34.3544 18.6904 34.3202 18.8166C34.2803 18.9375 34.2632 19.0847 34.2974 19.1425C34.3316 19.2003 34.4398 19.2897 34.4398 19.2897C34.4398 19.2897 34.4113 19.3527 34.417 19.4211C34.4227 19.4894 34.4398 19.5735 34.4398 19.5735C34.4398 19.5735 34.4626 19.4894 34.4968 19.4526C34.531 19.4158 34.5709 19.358 34.5709 19.358C34.5709 19.358 34.719 19.4158 34.8957 19.4316C35.0723 19.4474 35.1749 19.3948 35.3003 19.5104C35.4256 19.6261 35.5738 19.8626 35.38 19.9099C35.1863 19.9572 35.0666 20.0046 34.8843 19.9415C34.702 19.8731 34.6108 19.8311 34.6108 19.8311C34.6108 19.8311 34.5766 19.7417 34.5823 19.6892C34.5937 19.6419 34.6108 19.584 34.6108 19.584C34.6108 19.584 34.5139 19.6471 34.4968 19.7049C34.4797 19.7628 34.4968 19.8101 34.4968 19.8101C34.4968 19.8101 34.3886 19.7417 34.2917 19.7575C34.1948 19.7733 34.115 19.8731 34.1321 19.9625C34.1435 20.0256 34.286 20.1412 34.3829 20.2096C34.4683 20.2306 34.5538 20.2516 34.6393 20.2674C34.8501 20.2989 35.0609 20.3042 35.2775 20.3147C35.5168 20.3305 35.7618 20.3567 35.9897 20.4251C35.9043 20.3305 35.853 20.2253 35.8359 20.0781C35.8359 20.0624 35.8644 20.0571 35.8701 20.0729C35.91 20.2621 36.0239 20.3883 36.1949 20.4934C36.2405 20.5197 36.2006 20.5828 36.155 20.5565C35.8131 20.3935 35.437 20.3883 35.0609 20.3673C34.8786 20.3567 34.6678 20.3515 34.474 20.3042C34.4683 20.362 34.4455 20.4671 34.3601 20.5249C34.2347 20.6091 34.0866 20.6826 33.9669 20.6143C33.8472 20.5407 33.7447 20.4408 33.7447 20.4408C33.7447 20.4408 33.7276 20.525 33.7845 20.6091C33.8016 20.6353 33.8301 20.6616 33.8529 20.6879C33.9555 20.7247 34.0638 20.751 34.1834 20.7668C34.4284 20.7983 34.6792 20.7773 34.9242 20.772C34.9698 20.772 34.9641 20.8298 34.9242 20.8351C34.5994 20.8561 34.2461 20.8771 33.9327 20.7983C33.8928 20.8141 33.8187 20.8456 33.6991 20.9297C33.5167 21.0559 33.4256 21.1557 33.4256 21.1557C33.4256 21.1557 33.1976 20.9244 33.0894 20.6879C32.9868 20.4514 32.8216 20.0151 32.8614 19.7838C32.8956 19.5525 32.8899 19.3212 32.7304 19.2424C32.5708 19.1635 32.3885 19.1845 32.3885 19.1845C32.3885 19.1845 32.3942 19.1267 32.3087 19.0847C32.2233 19.0426 32.0466 19.0584 32.0466 19.0584C32.0466 19.0584 32.1093 19.0899 32.1435 19.1215C32.1777 19.153 32.2233 19.195 32.2233 19.195C32.2233 19.195 32.1321 19.2213 32.0694 19.2529C32.0067 19.2844 31.9554 19.3633 31.9554 19.3633C31.9554 19.3633 31.8415 19.3159 31.7275 19.3159C31.6136 19.3159 31.5053 19.3738 31.5053 19.3738C31.5053 19.3738 31.6363 19.379 31.7161 19.4053C31.7959 19.4368 31.87 19.4684 31.87 19.4684C31.87 19.4684 31.8187 19.5104 31.8016 19.5998C31.7845 19.6892 31.8016 19.747 31.8016 19.747C31.8016 19.747 31.625 19.6997 31.5281 19.7207C31.4312 19.747 31.3457 19.8206 31.3457 19.8206C31.3457 19.8206 31.4882 19.8101 31.568 19.8416C31.6534 19.8731 31.7161 19.9204 31.7161 19.9204C31.7161 19.9204 31.642 20.0151 31.6933 20.1149C31.7446 20.2096 32.115 20.3673 32.2631 20.5407C32.4113 20.7142 32.4911 20.977 32.474 21.3029C32.4512 21.6236 32.5025 21.8338 32.7817 22.1492C32.964 22.3542 33.135 22.4751 33.2261 22.5329C33.2774 22.554 33.3287 22.5697 33.38 22.5855C33.6706 22.6801 33.9726 22.759 34.2518 22.8799C34.2632 22.8851 34.2575 22.9009 34.2461 22.8956C33.9099 22.8115 33.5737 22.7169 33.2489 22.6065C33.2204 22.6223 33.1805 22.6486 33.1179 22.6906C32.9583 22.7958 32.8842 22.8641 32.719 22.8378C32.5594 22.8115 32.2916 22.3752 32.0694 22.3963C31.8472 22.4173 31.8415 22.4856 31.8415 22.4856C31.8415 22.4856 31.8244 22.4436 31.7161 22.4383C31.6079 22.4331 31.4654 22.5277 31.4654 22.5277C31.4654 22.5277 31.5338 22.5172 31.6193 22.554C31.7047 22.5855 31.7674 22.6591 31.7674 22.6591C31.7674 22.6591 31.7218 22.6696 31.6762 22.7064C31.6306 22.7432 31.6363 22.8115 31.6363 22.8115C31.6363 22.8115 31.5224 22.8115 31.4027 22.8694C31.2432 22.9062 31.209 23.0691 31.209 23.0691ZM36.2917 22.5645C36.2689 22.5382 36.2405 22.5067 36.212 22.4856C36.1607 22.4488 36.1037 22.412 36.0524 22.391C35.9897 22.3017 35.9441 22.1965 35.9214 22.1019C35.9214 22.0914 35.9385 22.0756 35.9442 22.0861C36.0752 22.2228 36.1493 22.391 36.2803 22.5277C36.3088 22.554 36.3373 22.575 36.3658 22.596C36.343 22.5855 36.3145 22.575 36.2917 22.5645ZM37.0268 19.8679C37.1579 19.768 37.306 19.6629 37.306 19.4842C37.306 19.4684 37.3288 19.4684 37.3288 19.4842C37.3459 19.6366 37.2832 19.7312 37.1693 19.8416C37.0952 19.9152 37.118 19.9099 37.1749 19.9888C37.2205 20.0519 37.2547 20.1202 37.2832 20.1885C37.3744 20.4093 37.477 20.8035 37.2148 20.9612C37.192 20.977 37.1693 20.9507 37.1806 20.9297C37.2718 20.7352 37.3003 20.5828 37.2547 20.3725C37.2148 20.2096 37.1351 20.0519 37.0211 19.9152C37.0097 19.8994 37.0154 19.8784 37.0268 19.8679ZM36.9869 20.8666C37.0097 20.8666 37.0211 20.8929 37.004 20.9087C36.8559 21.0348 36.759 21.1347 36.6963 21.3187C36.6336 21.4974 36.6336 21.7077 36.6792 21.8916C36.6849 21.9127 36.6735 21.9284 36.6507 21.9337C36.4855 21.9758 36.3031 22.0125 36.2234 22.1702C36.2177 22.1808 36.2006 22.1755 36.2006 22.1597C36.2462 22.0283 36.3316 21.96 36.4741 21.9127C36.5823 21.8759 36.5937 21.8916 36.5766 21.7865C36.5652 21.7077 36.5595 21.6236 36.5652 21.5447C36.5766 21.3134 36.6792 20.9034 36.9869 20.8666ZM36.5652 19.8889C36.6564 19.8206 36.7476 19.7522 36.759 19.6366C36.759 19.6208 36.7818 19.6208 36.7818 19.6366C36.7932 19.7312 36.7704 19.7838 36.7077 19.8574C36.6564 19.9204 36.6336 19.8994 36.6849 19.9678C36.7191 20.0098 36.7419 20.0624 36.7647 20.1097C36.8274 20.2674 36.9071 20.546 36.7077 20.6511C36.6906 20.6616 36.6621 20.6458 36.6678 20.6248C36.7533 20.3725 36.7362 20.157 36.5595 19.9362C36.5482 19.9204 36.5539 19.8994 36.5652 19.8889ZM35.9612 18.9532C35.8644 18.927 35.8017 18.927 35.6763 18.9427C35.6877 18.9007 35.7846 18.8902 35.8131 18.8586C35.8416 18.8271 35.8188 18.7955 35.8017 18.7588C35.8416 18.7535 35.9498 18.8113 36.0239 18.8691C36.098 18.927 36.1721 19.0373 36.1721 19.0373C36.1721 19.0373 36.0638 18.9848 35.9612 18.9532ZM36.1493 19.931C36.1379 19.9204 36.1436 19.8994 36.155 19.8889C36.2461 19.8206 36.3373 19.7522 36.3487 19.6366C36.3487 19.6208 36.3715 19.6208 36.3715 19.6366C36.3829 19.7312 36.3601 19.7838 36.2974 19.8574C36.2461 19.9204 36.2234 19.8994 36.2746 19.9678C36.3088 20.0098 36.3316 20.0624 36.3544 20.1097C36.4171 20.2674 36.4969 20.546 36.2974 20.6511C36.2803 20.6616 36.2519 20.6458 36.2575 20.6248C36.343 20.3673 36.3259 20.1517 36.1493 19.931ZM35.9954 21.6709C36.1037 21.6288 36.1208 21.6446 36.1037 21.5395C36.0923 21.4764 36.0923 21.408 36.098 21.345C36.1037 21.1505 36.1949 20.8141 36.4513 20.7878C36.4741 20.7878 36.4855 20.8141 36.4684 20.8298C36.3544 20.9402 36.2689 21.0138 36.2177 21.1662C36.1664 21.3187 36.1607 21.4869 36.2006 21.6446C36.2063 21.6656 36.1949 21.6814 36.1721 21.6866C36.0353 21.7182 35.8872 21.755 35.8131 21.8811C35.8074 21.8916 35.7903 21.8864 35.7903 21.8706C35.8359 21.776 35.8872 21.7129 35.9954 21.6709ZM33.9783 22.3595C33.9783 22.349 34.0011 22.3385 34.0068 22.3542C34.0125 22.37 34.0239 22.3858 34.0296 22.4015C34.0353 22.4015 34.041 22.4015 34.0467 22.4015C34.2917 22.575 34.531 22.7274 34.833 22.7958C34.8501 22.801 34.8444 22.8221 34.8273 22.8221C34.5937 22.8063 34.2746 22.7012 34.1036 22.5224C34.1435 22.575 34.1891 22.6276 34.2461 22.6801C34.3487 22.7695 34.4398 22.8483 34.5082 22.964C34.5196 22.985 34.4854 23.006 34.474 22.985C34.3202 22.7695 33.9669 22.6433 33.9783 22.3595Z" fill="white"/>
<path d="M31.209 35.3972C31.209 35.3972 31.3059 35.3131 31.3799 35.3026C31.454 35.2868 31.5395 35.2921 31.5395 35.2921C31.5395 35.2921 31.5509 35.3289 31.5737 35.3815C31.5965 35.434 31.6819 35.4919 31.6819 35.4919C31.6819 35.4919 31.5965 35.4866 31.5224 35.5602C31.4426 35.6338 31.4255 35.7705 31.4255 35.7705C31.4255 35.7705 31.511 35.6969 31.5851 35.6863C31.6648 35.6758 31.7503 35.6706 31.7503 35.6706C31.7503 35.6706 31.7446 35.8178 31.944 35.8335C32.1435 35.8546 32.474 35.7442 32.5651 35.7967C32.662 35.844 32.7304 35.9281 32.9184 35.9019C33.1065 35.8756 33.4142 35.6863 33.5851 35.6758C33.6649 35.6706 33.7219 35.6863 33.7618 35.6969C33.8016 35.6969 33.8415 35.6969 33.87 35.6969C33.9726 35.7021 34.0581 35.7494 34.1207 35.8178C34.1378 35.8335 34.115 35.8651 34.0923 35.8493C34.0125 35.7915 33.9327 35.7705 33.8358 35.7705C33.8586 35.8388 33.9384 35.986 34.1492 36.1332C34.4398 36.3382 35.38 36.6062 35.38 36.6062C35.38 36.6062 34.8159 36.6535 34.6051 36.9847C34.3943 37.3106 34.4398 37.4788 34.5823 37.831C34.7304 38.1885 34.9185 38.3619 34.4968 38.5038C34.0809 38.651 33.9726 38.8876 33.739 38.8087C33.5053 38.7299 33.2831 38.5932 32.9697 38.6773C32.6563 38.7667 32.7361 38.856 32.7361 38.856C32.7361 38.856 32.5765 38.835 32.4797 38.9454C32.3771 39.0558 32.3942 39.2345 32.3942 39.2345C32.3942 39.2345 32.4569 39.1136 32.5538 39.0768C32.6506 39.04 32.7589 39.0768 32.7589 39.0768C32.7589 39.0768 32.7589 39.1083 32.7646 39.1714C32.7703 39.2345 32.8102 39.3291 32.8102 39.3291C32.8102 39.3291 32.7304 39.3344 32.6506 39.4395C32.5765 39.5394 32.6392 39.7602 32.6392 39.7602C32.6392 39.7602 32.6734 39.6393 32.7532 39.5814C32.833 39.5236 32.907 39.4973 32.907 39.4973C32.907 39.4973 32.9184 39.5289 32.9697 39.5709C33.021 39.613 33.1919 39.6235 33.1919 39.6235C33.1919 39.6235 33.1122 39.655 33.1065 39.7707C33.1008 39.8863 33.1748 40.0177 33.1748 40.0177C33.1748 40.0177 33.1919 39.9073 33.2318 39.8338C33.2717 39.7602 33.3629 39.7181 33.3629 39.7181C33.3629 39.7181 33.5509 39.7917 33.6991 39.7496C33.8472 39.7023 33.927 39.5394 34.0068 39.5446C34.0866 39.5499 34.3772 39.5762 34.5139 39.5131C34.6564 39.45 34.6906 39.1346 34.9128 39.1189C35.135 39.1031 35.5681 39.1451 35.7105 38.998C35.853 38.8508 35.7048 38.3987 35.6592 38.241C35.6137 38.0781 35.6023 38.0255 35.8416 38.0255C36.0809 38.0308 36.5254 38.1622 36.6735 38.0781C36.8046 37.9992 36.9071 37.8258 36.9299 37.789C36.8445 37.6155 36.6564 37.5051 36.4855 37.3579C36.3145 37.2107 36.1721 37.0215 36.1094 36.8165C36.1037 36.8007 36.1322 36.7902 36.1436 36.806C36.3259 37.0793 36.5083 37.3054 36.7818 37.5156C36.9413 37.6365 37.0325 37.7784 37.0325 37.9467C37.1522 38.1201 37.3858 38.3672 37.779 38.3882C38.3773 38.4197 38.5026 38.3356 38.7647 38.4828C39.0212 38.63 39.0838 38.8403 38.987 39.0295C38.8901 39.2187 38.4513 39.1346 38.1493 39.245C37.8473 39.3554 37.7505 39.4605 37.7562 39.5972C37.7619 39.7339 37.8758 39.8022 37.8758 39.8022C37.8758 39.8022 37.8416 39.8285 37.8302 39.9336C37.8188 40.0388 37.9214 40.1965 37.9214 40.1965C37.9214 40.1965 37.9271 40.0913 37.9784 39.9862C38.024 39.8811 38.0867 39.8443 38.0867 39.8443C38.0867 39.8443 38.0924 39.8495 38.1265 39.8653C38.1607 39.8811 38.2291 39.9021 38.2291 39.9021C38.2291 39.9021 38.2006 39.9704 38.2063 40.0703C38.212 40.1702 38.3203 40.3279 38.3203 40.3279C38.3203 40.3279 38.3146 40.1702 38.3545 40.1018C38.4001 40.0335 38.4513 39.9914 38.4513 39.9914C38.4513 39.9914 38.5083 40.0125 38.5824 40.0072C38.6622 40.002 38.7533 39.9757 38.7533 39.9757C38.7533 39.9757 38.6964 40.0493 38.7362 40.1386C38.7704 40.228 38.9129 40.3068 38.9129 40.3068C38.9129 40.3068 38.8559 40.1859 38.8958 40.1229C38.9357 40.0598 38.9984 39.9809 38.9984 39.9809C38.9984 39.9809 39.0667 39.9967 39.1693 39.9389C39.2662 39.8811 39.2377 39.6182 39.3687 39.5919C39.4998 39.5604 39.6935 39.6077 39.7676 39.4868C39.8417 39.3659 39.5511 38.8771 39.5568 38.6195C39.5625 38.3619 39.9044 37.7206 39.7163 37.6102C39.5283 37.4999 39.2092 37.6628 38.9414 37.5682C38.6736 37.4683 38.6109 37.4578 38.6337 37.216C38.6451 37.0846 38.6565 36.99 38.6622 36.9216C38.8388 36.9637 39.0553 36.9847 39.232 36.9269C39.6195 36.8007 39.8645 36.5326 39.8474 35.9019C39.8303 35.2658 39.3346 34.84 38.9927 34.3775C38.6508 33.9149 38.4684 33.4996 38.571 33.0528C38.6736 32.606 38.9414 32.5219 39.1921 32.5377C39.4428 32.5482 39.4998 32.6481 39.5454 32.8163C39.591 32.9845 39.3061 33.2578 39.4029 33.6783C39.4998 34.0936 39.7733 34.0831 39.8474 34.2355C39.9215 34.3932 39.8702 34.6035 39.8702 34.6035C39.8702 34.6035 39.9556 34.4143 39.95 34.2723C39.95 34.1304 39.893 34.0305 39.893 34.0305C39.893 34.0305 40.024 34.1987 40.1095 34.3196C40.195 34.4405 40.5198 34.5825 40.5198 34.5825C40.5198 34.5825 40.383 34.4143 40.2406 34.2723C40.0981 34.1304 40.0012 33.8518 40.0012 33.8518C40.0012 33.8518 40.0924 33.9885 40.1551 34.0516C40.2178 34.1199 40.3887 34.2198 40.3944 34.1987C40.3944 34.1777 40.1665 33.773 40.1323 33.5259C40.0981 33.2789 40.1722 33.2526 40.1722 33.2526C40.1722 33.2526 40.2804 33.2946 40.3659 33.384C40.4514 33.4733 40.5426 33.7046 40.5426 33.7046C40.5426 33.7046 40.6679 33.6205 40.5312 32.995C40.3944 32.3747 39.4086 32.2906 39.0553 32.2959C38.7021 32.3011 38.3716 32.7059 38.2975 33.426C38.2234 34.1462 39.0098 34.9925 39.2833 35.3552C39.5625 35.7179 39.5283 36.3802 39.1522 36.6062C38.9927 36.7009 38.8217 36.6798 38.6736 36.6273C38.6736 36.5694 38.6622 36.5064 38.6508 36.4538C38.6223 36.3592 38.5026 36.1699 38.3317 36.0438C37.91 35.7231 37.2718 35.5234 36.9527 35.3657C36.7647 35.2711 36.6564 35.1712 36.5937 35.1081C36.5482 35.0924 36.5083 35.0766 36.4627 35.0556C36.4 35.0293 36.343 34.9925 36.286 34.9504C36.3031 34.9557 36.3202 34.9609 36.3373 34.9662C36.3658 34.982 36.3886 34.9925 36.3886 34.9925C36.3886 34.9925 36.3829 34.9872 36.3772 34.9767C36.4228 34.9872 36.4684 34.9977 36.514 34.9977C36.5937 35.0398 36.6792 35.0818 36.7419 35.1554C36.7932 35.1712 36.8445 35.1817 36.9014 35.1712C37.1066 35.1449 37.2775 35.0135 37.2775 35.0135C37.2775 35.0135 37.0496 34.9715 36.9242 34.8768C36.7989 34.7822 36.759 34.6718 36.759 34.6718C36.759 34.6718 37.1522 34.4931 37.3687 34.2723C37.5909 34.0568 37.4485 33.5837 37.4485 33.5837C37.4485 33.5837 37.6194 33.4155 37.722 33.1159C37.8245 32.811 37.5966 32.401 37.5966 32.401C37.5966 32.401 37.7277 32.2854 37.722 32.0015C37.7163 31.765 37.5909 31.5547 37.5453 31.4916C37.4485 31.56 37.3402 31.6125 37.2262 31.6073C37.2034 31.6073 37.2034 31.581 37.2205 31.5757C37.3516 31.5284 37.4713 31.4811 37.5795 31.4075C37.6194 31.3445 37.6764 31.2498 37.6992 31.171C37.7391 31.0396 37.6821 30.9975 37.5567 30.966C37.4314 30.9397 37.1408 31.0606 37.1408 31.0606C37.1408 31.0606 37.0154 30.6558 36.7191 30.5455C36.4228 30.4351 35.984 30.4456 35.984 30.4456C35.984 30.4456 36.1322 30.5034 36.2063 30.5455C36.2746 30.5875 36.3544 30.7399 36.3544 30.7399C36.3544 30.7399 35.9612 30.6664 35.7447 30.7137C35.5225 30.7557 35.4256 30.9975 35.4256 30.9975C35.4256 30.9975 34.6792 30.7347 34.5481 30.782C34.417 30.8241 34.4512 30.9555 34.4512 30.9555C34.4512 30.9555 34.3544 31.0185 34.3202 31.1447C34.2803 31.2656 34.2632 31.4128 34.2974 31.4706C34.3316 31.5284 34.4398 31.6178 34.4398 31.6178C34.4398 31.6178 34.4113 31.6809 34.417 31.7492C34.4227 31.8175 34.4398 31.9016 34.4398 31.9016C34.4398 31.9016 34.4626 31.8175 34.4968 31.7807C34.531 31.7439 34.5709 31.6861 34.5709 31.6861C34.5709 31.6861 34.719 31.7439 34.8957 31.7597C35.0723 31.7755 35.1749 31.7229 35.3003 31.8386C35.4256 31.9542 35.5738 32.1908 35.38 32.2381C35.1863 32.2854 35.0666 32.3327 34.8843 32.2696C34.702 32.2013 34.6108 32.1592 34.6108 32.1592C34.6108 32.1592 34.5766 32.0699 34.5823 32.0173C34.5937 31.97 34.6108 31.9122 34.6108 31.9122C34.6108 31.9122 34.5139 31.9752 34.4968 32.0331C34.4797 32.0909 34.4968 32.1382 34.4968 32.1382C34.4968 32.1382 34.3886 32.0699 34.2917 32.0856C34.1948 32.1014 34.115 32.2013 34.1321 32.2906C34.1435 32.3537 34.286 32.4693 34.3829 32.5377C34.4683 32.5587 34.5538 32.5797 34.6393 32.5955C34.8501 32.627 35.0609 32.6323 35.2775 32.6428C35.5168 32.6586 35.7618 32.6849 35.9897 32.7532C35.9043 32.6586 35.853 32.5535 35.8359 32.4063C35.8359 32.3905 35.8644 32.3852 35.8701 32.401C35.91 32.5902 36.0239 32.7164 36.1949 32.8215C36.2405 32.8478 36.2006 32.9109 36.155 32.8846C35.8131 32.7217 35.437 32.7164 35.0609 32.6954C34.8786 32.6849 34.6678 32.6796 34.474 32.6323C34.4683 32.6901 34.4455 32.7953 34.3601 32.8531C34.2347 32.9372 34.0866 33.0108 33.9669 32.9424C33.8472 32.8688 33.7447 32.769 33.7447 32.769C33.7447 32.769 33.7276 32.8531 33.7845 32.9372C33.8016 32.9635 33.8301 32.9897 33.8529 33.016C33.9555 33.0528 34.0638 33.0791 34.1834 33.0949C34.4284 33.1264 34.6792 33.1054 34.9242 33.1001C34.9698 33.1001 34.9641 33.158 34.9242 33.1632C34.5994 33.1842 34.2461 33.2053 33.9327 33.1264C33.8928 33.1422 33.8187 33.1737 33.6991 33.2578C33.5167 33.384 33.4256 33.4839 33.4256 33.4839C33.4256 33.4839 33.1976 33.2526 33.0894 33.016C32.9868 32.7795 32.8216 32.3432 32.8614 32.1119C32.8956 31.8806 32.8899 31.6493 32.7304 31.5705C32.5708 31.4916 32.3885 31.5127 32.3885 31.5127C32.3885 31.5127 32.3942 31.4548 32.3087 31.4128C32.2233 31.3707 32.0466 31.3865 32.0466 31.3865C32.0466 31.3865 32.1093 31.418 32.1435 31.4496C32.1777 31.4811 32.2233 31.5232 32.2233 31.5232C32.2233 31.5232 32.1321 31.5495 32.0694 31.581C32.0067 31.6125 31.9554 31.6914 31.9554 31.6914C31.9554 31.6914 31.8415 31.6441 31.7275 31.6441C31.6136 31.6441 31.5053 31.7019 31.5053 31.7019C31.5053 31.7019 31.6363 31.7071 31.7161 31.7334C31.7959 31.765 31.87 31.7965 31.87 31.7965C31.87 31.7965 31.8187 31.8386 31.8016 31.9279C31.7845 32.0173 31.8016 32.0751 31.8016 32.0751C31.8016 32.0751 31.625 32.0278 31.5281 32.0488C31.4312 32.0751 31.3457 32.1487 31.3457 32.1487C31.3457 32.1487 31.4882 32.1382 31.568 32.1697C31.6534 32.2013 31.7161 32.2486 31.7161 32.2486C31.7161 32.2486 31.642 32.3432 31.6933 32.4431C31.7446 32.5377 32.115 32.6954 32.2631 32.8688C32.4113 33.0423 32.4911 33.3051 32.474 33.631C32.4512 33.9517 32.5025 34.162 32.7817 34.4773C32.964 34.6823 33.135 34.8032 33.2261 34.8611C33.2774 34.8821 33.3287 34.8979 33.38 34.9136C33.6706 35.0083 33.9726 35.0871 34.2518 35.208C34.2632 35.2133 34.2575 35.229 34.2461 35.2238C33.9099 35.1397 33.5737 35.045 33.2489 34.9347C33.2204 34.9504 33.1805 34.9767 33.1179 35.0188C32.9583 35.1239 32.8842 35.1922 32.719 35.166C32.5594 35.1397 32.2916 34.7034 32.0694 34.7244C31.8472 34.7454 31.8415 34.8138 31.8415 34.8138C31.8415 34.8138 31.8244 34.7717 31.7161 34.7665C31.6079 34.7612 31.4654 34.8558 31.4654 34.8558C31.4654 34.8558 31.5338 34.8453 31.6193 34.8821C31.7047 34.9136 31.7674 34.9872 31.7674 34.9872C31.7674 34.9872 31.7218 34.9977 31.6762 35.0345C31.6306 35.0713 31.6363 35.1397 31.6363 35.1397C31.6363 35.1397 31.5224 35.1397 31.4027 35.1975C31.2432 35.2343 31.209 35.3972 31.209 35.3972ZM36.2917 34.8926C36.2689 34.8663 36.2405 34.8348 36.212 34.8138C36.1607 34.777 36.1037 34.7402 36.0524 34.7191C35.9897 34.6298 35.9441 34.5247 35.9214 34.43C35.9214 34.4195 35.9385 34.4038 35.9442 34.4143C36.0752 34.5509 36.1493 34.7191 36.2803 34.8558C36.3088 34.8821 36.3373 34.9031 36.3658 34.9241C36.343 34.9136 36.3145 34.9031 36.2917 34.8926ZM37.0268 32.196C37.1579 32.0961 37.306 31.991 37.306 31.8123C37.306 31.7965 37.3288 31.7965 37.3288 31.8123C37.3459 31.9647 37.2832 32.0593 37.1693 32.1697C37.0952 32.2433 37.118 32.2381 37.1749 32.3169C37.2205 32.38 37.2547 32.4483 37.2832 32.5167C37.3744 32.7374 37.477 33.1317 37.2148 33.2894C37.192 33.3051 37.1693 33.2789 37.1806 33.2578C37.2718 33.0633 37.3003 32.9109 37.2547 32.7006C37.2148 32.5377 37.1351 32.38 37.0211 32.2433C37.0097 32.2275 37.0154 32.2065 37.0268 32.196ZM36.9869 33.1948C37.0097 33.1948 37.0211 33.221 37.004 33.2368C36.8559 33.363 36.759 33.4628 36.6963 33.6468C36.6336 33.8255 36.6336 34.0358 36.6792 34.2198C36.6849 34.2408 36.6735 34.2566 36.6507 34.2618C36.4855 34.3039 36.3031 34.3407 36.2234 34.4984C36.2177 34.5089 36.2006 34.5036 36.2006 34.4879C36.2462 34.3564 36.3316 34.2881 36.4741 34.2408C36.5823 34.204 36.5937 34.2198 36.5766 34.1146C36.5652 34.0358 36.5595 33.9517 36.5652 33.8728C36.5766 33.6416 36.6792 33.2315 36.9869 33.1948ZM36.5652 32.217C36.6564 32.1487 36.7476 32.0804 36.759 31.9647C36.759 31.949 36.7818 31.949 36.7818 31.9647C36.7932 32.0593 36.7704 32.1119 36.7077 32.1855C36.6564 32.2486 36.6336 32.2275 36.6849 32.2959C36.7191 32.3379 36.7419 32.3905 36.7647 32.4378C36.8274 32.5955 36.9071 32.8741 36.7077 32.9792C36.6906 32.9897 36.6621 32.974 36.6678 32.9529C36.7533 32.7006 36.7362 32.4851 36.5595 32.2643C36.5482 32.2486 36.5539 32.2275 36.5652 32.217ZM35.9612 31.2814C35.8644 31.2551 35.8017 31.2551 35.6763 31.2709C35.6877 31.2288 35.7846 31.2183 35.8131 31.1868C35.8416 31.1552 35.8188 31.1237 35.8017 31.0869C35.8416 31.0816 35.9498 31.1394 36.0239 31.1973C36.098 31.2551 36.1721 31.3655 36.1721 31.3655C36.1721 31.3655 36.0638 31.3129 35.9612 31.2814ZM36.1493 32.2591C36.1379 32.2486 36.1436 32.2275 36.155 32.217C36.2461 32.1487 36.3373 32.0804 36.3487 31.9647C36.3487 31.949 36.3715 31.949 36.3715 31.9647C36.3829 32.0593 36.3601 32.1119 36.2974 32.1855C36.2461 32.2486 36.2234 32.2275 36.2746 32.2959C36.3088 32.3379 36.3316 32.3905 36.3544 32.4378C36.4171 32.5955 36.4969 32.8741 36.2974 32.9792C36.2803 32.9897 36.2519 32.974 36.2575 32.9529C36.343 32.6954 36.3259 32.4799 36.1493 32.2591ZM35.9954 33.999C36.1037 33.9569 36.1208 33.9727 36.1037 33.8676C36.0923 33.8045 36.0923 33.7362 36.098 33.6731C36.1037 33.4786 36.1949 33.1422 36.4513 33.1159C36.4741 33.1159 36.4855 33.1422 36.4684 33.158C36.3544 33.2683 36.2689 33.3419 36.2177 33.4944C36.1664 33.6468 36.1607 33.815 36.2006 33.9727C36.2063 33.9937 36.1949 34.0095 36.1721 34.0148C36.0353 34.0463 35.8872 34.0831 35.8131 34.2093C35.8074 34.2198 35.7903 34.2145 35.7903 34.1987C35.8359 34.1041 35.8872 34.0411 35.9954 33.999ZM33.9783 34.6876C33.9783 34.6771 34.0011 34.6666 34.0068 34.6823C34.0125 34.6981 34.0239 34.7139 34.0296 34.7297C34.0353 34.7297 34.041 34.7297 34.0467 34.7297C34.2917 34.9031 34.531 35.0556 34.833 35.1239C34.8501 35.1292 34.8444 35.1502 34.8273 35.1502C34.5937 35.1344 34.2746 35.0293 34.1036 34.8506C34.1435 34.9031 34.1891 34.9557 34.2461 35.0083C34.3487 35.0976 34.4398 35.1765 34.5082 35.2921C34.5196 35.3131 34.4854 35.3342 34.474 35.3131C34.3202 35.0976 33.9669 34.9715 33.9783 34.6876Z" fill="white"/>
<path d="M16.8535 25.2855H17.8488C18.2492 25.2855 18.5237 25.6303 18.661 25.7974C18.7983 25.9646 18.8727 26.325 18.8727 26.8734V32.9949V39.1165C18.8727 39.6649 18.804 40.0201 18.661 40.1924C18.5237 40.3596 18.2492 40.7043 17.8488 40.7043H16.8535V41.7542H29.8607H29.8836V41.002V36.7817H29.0427C28.6938 38.7143 28.6538 39.3411 27.8816 40.1245C27.1037 40.908 25.3133 40.6991 23.849 40.6678C23.1912 40.6521 22.7965 40.3753 22.6364 40.2081C22.4762 40.0358 22.3962 39.6701 22.3962 39.1165V33.653H22.6764C23.5401 33.653 26.0169 33.653 26.4402 34.1701C26.8634 34.6872 27.0522 34.8126 27.2295 36.1027H28.2248V32.9897V29.8767H27.2295C27.0522 31.1668 26.8692 31.2922 26.4402 31.8093C26.0169 32.3264 23.5401 32.3264 22.6764 32.3264H22.3962V26.8682C22.3962 26.3145 22.4762 25.9489 22.6364 25.7765C22.7965 25.6042 23.1912 25.3273 23.849 25.3169C25.3076 25.2855 27.1037 25.0766 27.8816 25.8601C28.6595 26.6436 28.6938 27.2756 29.0427 29.2029H29.8836V24.9826V24.2305H29.8607H16.8535V25.2855Z" fill="white"/>
<path d="M23.6992 13.5332C23.257 13.5332 22.8666 13.7186 22.6025 14.0047C22.39 14.2378 22.2637 14.5345 22.2637 14.8577C22.2637 15.5888 22.9068 16.1821 23.6992 16.1821C24.4916 16.1821 25.1347 15.5888 25.1347 14.8577C25.1347 14.5345 25.0084 14.2325 24.7959 14.0047C24.5318 13.7133 24.1413 13.5332 23.6992 13.5332Z" fill="white"/>
</svg>
