<svg width="24" height="25" viewBox="0 0 24 25" fill="none" xmlns="http://www.w3.org/2000/svg">
    <g clip-path="url(#clip0_1265_3500)">
        <path d="M20.4338 3.98523C18.1793 1.73907 15.18 0.501282 11.9879 0.5C8.80298 0.5 5.79895 1.73669 3.52954 3.9823C1.2561 6.23175 0.00292969 9.22113 0 12.3889V12.3925V12.3947C0.000366211 14.312 0.504089 16.2462 1.46027 18.0117L0.0327759 24.5L6.59583 23.0071C8.25806 23.8448 10.1127 24.2865 11.9833 24.2872H11.9881C15.1725 24.2872 18.1765 23.0504 20.4463 20.8046C22.7217 18.5533 23.9755 15.5677 23.9769 12.398C23.9778 9.25061 22.7197 6.26288 20.4338 3.98523ZM11.9879 22.4141H11.9837C10.3041 22.4133 8.63983 21.9916 7.17114 21.1942L6.86078 21.0258L2.49664 22.0184L3.44458 17.7103L3.26184 17.3951C2.35327 15.8283 1.87317 14.0987 1.87317 12.3927C1.87665 6.87079 6.41364 2.37317 11.9875 2.37317C14.6803 2.37427 17.2104 3.41815 19.1118 5.31219C21.0419 7.23553 22.1045 9.75177 22.1036 12.3975C22.1014 17.9207 17.5635 22.4141 11.9879 22.4141Z"
              fill="white"/>
        <path d="M8.72577 7.14984H8.20026C8.01733 7.14984 7.72034 7.21832 7.46912 7.4917C7.21771 7.76526 6.50928 8.42645 6.50928 9.77118C6.50928 11.1159 7.492 12.4152 7.62897 12.5978C7.76611 12.7802 9.52594 15.6278 12.3132 16.7233C14.6296 17.6337 15.1011 17.4526 15.6038 17.407C16.1066 17.3616 17.2263 16.746 17.4548 16.1079C17.6833 15.4698 17.6833 14.9227 17.6148 14.8084C17.5461 14.6945 17.3632 14.6262 17.0891 14.4896C16.8148 14.3528 15.4708 13.6805 15.2194 13.5891C14.968 13.4981 14.7853 13.4525 14.6024 13.7263C14.4194 13.9995 13.8809 14.6315 13.7209 14.8139C13.561 14.9965 13.401 15.0193 13.1267 14.8826C12.8524 14.7454 11.9783 14.4517 10.9307 13.5208C10.1154 12.7963 9.54956 11.8723 9.38953 11.5988C9.22968 11.3254 9.3725 11.1774 9.51001 11.041C9.63324 10.9187 9.79968 10.7513 9.93683 10.5919C10.0738 10.4322 10.1128 10.3183 10.2043 10.1359C10.2957 9.95355 10.2499 9.79388 10.1815 9.65729C10.1128 9.52051 9.58655 8.16901 9.34265 7.62848H9.34283C9.13739 7.17328 8.92114 7.1579 8.72577 7.14984Z"
              fill="white"/>
    </g>
</svg>
