<svg width="34" height="34" viewBox="0 0 34 34" fill="none" xmlns="http://www.w3.org/2000/svg">
<path d="M19.8284 12.7574L16.9999 15.5858L14.1715 12.7574C13.984 12.5698 13.7296 12.4645 13.4644 12.4645C13.1992 12.4645 12.9448 12.5698 12.7573 12.7574C12.5698 12.9449 12.4644 13.1992 12.4644 13.4645C12.4644 13.7297 12.5698 13.984 12.7573 14.1716L15.5857 17L12.7573 19.8284C12.5698 20.016 12.4644 20.2703 12.4644 20.5355C12.4644 20.8008 12.5698 21.0551 12.7573 21.2426C12.9448 21.4302 13.1992 21.5355 13.4644 21.5355C13.7296 21.5355 13.984 21.4302 14.1715 21.2426L16.9999 18.4142L19.8284 21.2426C20.0159 21.4302 20.2702 21.5355 20.5355 21.5355C20.8007 21.5355 21.055 21.4302 21.2426 21.2426C21.4301 21.0551 21.5355 20.8008 21.5355 20.5355C21.5355 20.2703 21.4301 20.016 21.2426 19.8284L18.4141 17L21.2426 14.1716C21.4301 13.984 21.5355 13.7297 21.5355 13.4645C21.5355 13.1992 21.4301 12.9449 21.2426 12.7574C21.055 12.5698 20.8007 12.4645 20.5355 12.4645C20.2702 12.4645 20.0159 12.5698 19.8284 12.7574Z" fill="#2D2B2C"/>
</svg>
