<svg width="20" height="20" viewBox="0 0 20 20" fill="none" xmlns="http://www.w3.org/2000/svg">
    <g clip-path="url(#clip0_1265_4924)">
        <path d="M14.5835 1.59711C13.6451 1.61171 12.7272 1.87366 11.9224 2.35651C11.1177 2.83935 10.4546 3.526 10.0001 4.34711C9.54566 3.526 8.88257 2.83935 8.07783 2.35651C7.27308 1.87366 6.35517 1.61171 5.41679 1.59711C3.92091 1.6621 2.51155 2.31649 1.49661 3.41731C0.481678 4.51812 -0.0563308 5.97588 0.000128002 7.47211C0.000128002 11.2613 3.98846 15.3996 7.33346 18.2054C8.08031 18.8331 9.02459 19.1771 10.0001 19.1771C10.9757 19.1771 11.9199 18.8331 12.6668 18.2054C16.0118 15.3996 20.0001 11.2613 20.0001 7.47211C20.0566 5.97588 19.5186 4.51812 18.5036 3.41731C17.4887 2.31649 16.0793 1.6621 14.5835 1.59711ZM11.596 16.9304C11.1493 17.3066 10.5841 17.5129 10.0001 17.5129C9.41617 17.5129 8.85098 17.3066 8.40429 16.9304C4.12263 13.3379 1.66679 9.89128 1.66679 7.47211C1.60983 6.41771 1.9721 5.38355 2.6746 4.5952C3.37709 3.80684 4.36282 3.32824 5.41679 3.26378C6.47077 3.32824 7.45649 3.80684 8.15899 4.5952C8.86149 5.38355 9.22376 6.41771 9.16679 7.47211C9.16679 7.69313 9.25459 7.90509 9.41087 8.06137C9.56715 8.21765 9.77911 8.30545 10.0001 8.30545C10.2211 8.30545 10.4331 8.21765 10.5894 8.06137C10.7457 7.90509 10.8335 7.69313 10.8335 7.47211C10.7765 6.41771 11.1388 5.38355 11.8413 4.5952C12.5438 3.80684 13.5295 3.32824 14.5835 3.26378C15.6374 3.32824 16.6232 3.80684 17.3257 4.5952C18.0282 5.38355 18.3904 6.41771 18.3335 7.47211C18.3335 9.89128 15.8776 13.3379 11.596 16.9271V16.9304Z"
              fill="white"/>
    </g>
    <defs>
        <clipPath id="clip0_1265_4924">
            <rect width="20" height="20" fill="red" stroke="black"/>
        </clipPath>
    </defs>
</svg>
