<svg width="24" height="25" viewBox="0 0 24 25" fill="transparent" xmlns="http://www.w3.org/2000/svg">
    <path d="M12 1.5C18.0751 1.5 23 6.42487 23 12.5C23 18.5751 18.0751 23.5 12 23.5C5.92487 23.5 1 18.5751 1 12.5C1 6.42487 5.92487 1.5 12 1.5Z"
          stroke="white" stroke-width="2"/>
    <path fill-rule="evenodd" clip-rule="evenodd"
          d="M4.96243 12.2354C8.72052 10.6831 11.2265 9.65967 12.4804 9.16521C16.0604 7.75343 16.8043 7.50818 17.2892 7.50009C17.3958 7.49831 17.6343 7.52336 17.7887 7.64219C17.9192 7.74252 17.955 7.87805 17.9722 7.97318C17.9894 8.06831 18.0108 8.285 17.9938 8.45433C17.7998 10.387 16.9603 15.0769 16.5332 17.2415C16.3525 18.1574 15.9967 18.4645 15.6522 18.4945C14.9036 18.5599 14.3351 18.0255 13.6101 17.5749C12.4755 16.8697 11.8345 16.4308 10.7332 15.7427C9.46037 14.9475 10.2855 14.5104 11.0108 13.7961C11.2006 13.6092 14.4991 10.7647 14.5629 10.5067C14.5709 10.4744 14.5783 10.3541 14.503 10.2906C14.4276 10.2271 14.3163 10.2488 14.236 10.2661C14.1223 10.2906 12.3097 11.4264 8.79841 13.6736C8.28392 14.0085 7.81791 14.1717 7.40039 14.1632C6.9401 14.1538 6.05469 13.9164 5.39648 13.7136C4.58916 13.4648 3.94752 13.3332 4.00339 12.9107C4.03249 12.6906 4.35217 12.4655 4.96243 12.2354Z"
          fill="white"/>
</svg>
